<svg width="303" height="112" viewBox="0 0 303 112" fill="none" xmlns="http://www.w3.org/2000/svg">
<rect width="302.158" height="111.704" rx="5.7799" fill="white"/>
<path d="M47.0909 59.1405V21.4922C47.0909 19.1989 48.95 17.3398 51.2433 17.3398H93.1942C97.0027 17.3398 98.8021 22.0389 95.9677 24.5826L54.0168 62.2309C51.3433 64.6302 47.0909 62.7327 47.0909 59.1405Z" fill="url(#paint0_linear_27_943)"/>
<g style="mix-blend-mode:multiply">
<path d="M46.9087 85.0585V47.4102C46.9087 45.1169 48.7678 43.2578 51.0611 43.2578H93.012C96.8205 43.2578 98.6199 47.9569 95.7854 50.5006L53.8345 88.1488C51.161 90.5481 46.9087 88.6507 46.9087 85.0585Z" fill="url(#paint1_linear_27_943)"/>
</g>
<path d="M43.2581 42.8931V77.9664C43.2581 83.3939 38.8582 87.7938 33.4307 87.7938H17.3397L17.3397 52.7204C17.3397 47.2929 21.7396 42.8931 27.1671 42.8931H43.2581Z" fill="#333333"/>
<circle cx="32.124" cy="28.4738" r="11.1339" fill="#C6426E"/>
<path d="M112.731 48.3398V24.4804H120.395V48.3398H112.731ZM125.863 24.4804H145.145V30.2025H133.528V34.2947H143.515V39.774H133.528V48.3398H125.863V24.4804ZM159.017 24.0642C162.068 24.0642 164.577 24.6885 166.542 25.9369C168.507 27.1623 169.513 28.9887 169.559 31.4163V31.8324H162.381V31.6937C162.381 31.0001 162.126 30.4221 161.618 29.9597C161.109 29.4974 160.335 29.2662 159.294 29.2662C158.277 29.2662 157.491 29.4164 156.936 29.717C156.404 30.0175 156.138 30.3875 156.138 30.8267C156.138 31.451 156.508 31.9134 157.248 32.2139C157.988 32.5145 159.179 32.8266 160.82 33.1503C162.739 33.5433 164.311 33.9594 165.536 34.3987C166.785 34.8149 167.872 35.5085 168.796 36.4795C169.721 37.4505 170.195 38.7683 170.218 40.4329C170.218 43.2535 169.259 45.3459 167.34 46.7099C165.444 48.074 162.901 48.756 159.71 48.756C155.988 48.756 153.087 48.1318 151.006 46.8833C148.948 45.6348 147.919 43.4269 147.919 40.2595H155.167C155.167 41.4618 155.479 42.2709 156.104 42.6871C156.728 43.0801 157.699 43.2766 159.017 43.2766C159.988 43.2766 160.785 43.1726 161.41 42.9645C162.057 42.7565 162.381 42.3287 162.381 41.6814C162.381 41.1034 162.022 40.6757 161.306 40.3983C160.612 40.0977 159.468 39.7856 157.872 39.4619C155.93 39.0458 154.323 38.618 153.052 38.1788C151.78 37.7164 150.671 36.965 149.723 35.9246C148.775 34.8842 148.301 33.4739 148.301 31.6937C148.301 29.0812 149.306 27.1623 151.318 25.9369C153.352 24.6885 155.919 24.0642 159.017 24.0642ZM187.755 30.584V48.3398H180.091V30.584H172.253V24.4804H195.558V30.584H187.755ZM212.666 48.3398L211.66 44.9759H203.302L202.297 48.3398H194.459L203.164 24.4804H212.076L220.781 48.3398H212.666ZM204.898 39.6353H210.065L207.568 31.1388H207.429L204.898 39.6353ZM234.999 30.584V48.3398H227.335V30.584H219.497V24.4804H242.802V30.584H234.999ZM246.64 48.3398V24.4804H254.304V48.3398H246.64ZM271.147 24.0642C274.684 24.0642 277.482 24.9543 279.539 26.7346C281.597 28.4916 282.626 31.0117 282.626 34.2947H275.308C275.308 32.9075 274.939 31.8093 274.199 31.0001C273.482 30.1909 272.453 29.7863 271.112 29.7863C269.563 29.7863 268.419 30.2719 267.679 31.2429C266.962 32.2139 266.604 33.5664 266.604 35.3004V37.5199C266.604 39.2307 266.962 40.5832 267.679 41.5774C268.419 42.5484 269.54 43.0339 271.043 43.0339C272.523 43.0339 273.644 42.6524 274.407 41.8895C275.17 41.1265 275.551 40.0515 275.551 38.6643H282.626C282.626 41.9241 281.62 44.4211 279.609 46.155C277.62 47.889 274.8 48.756 271.147 48.756C267.078 48.756 263.991 47.7156 261.888 45.6348C259.807 43.5541 258.766 40.4792 258.766 36.4101C258.766 32.3411 259.807 29.2662 261.888 27.1854C263.991 25.1046 267.078 24.0642 271.147 24.0642Z" fill="#333333"/>
<path d="M123.239 72.9663L120.65 73.0675C120.259 73.0675 120.063 72.9865 120.063 72.8247C120.063 72.6764 120.306 72.5617 120.791 72.4808C121.803 72.292 122.309 71.766 122.309 70.9029V61.6984C122.309 61.2668 122.228 61.0038 122.066 60.9094C121.904 60.8015 121.6 60.7476 121.155 60.7476H119.497C119.146 60.7476 118.816 60.815 118.505 60.9499C118.195 61.0848 117.986 61.2533 117.878 61.4556C117.77 61.6714 117.629 61.867 117.453 62.0423C117.292 62.2176 117.143 62.3053 117.008 62.3053C116.914 62.3053 116.867 62.2244 116.867 62.0625C116.867 61.9411 116.9 61.7995 116.968 61.6377C117.265 61.0308 117.474 60.2823 117.595 59.3922C117.635 59.082 117.75 58.9269 117.939 58.9269C118.047 58.9269 118.215 59.1427 118.445 59.5743C118.593 59.844 119.065 59.9789 119.861 59.9789H127.568C128.081 59.9789 128.472 59.8845 128.742 59.6956C128.849 59.6282 128.971 59.5271 129.106 59.3922C129.254 59.2573 129.375 59.1562 129.47 59.0888C129.564 59.0078 129.659 58.9674 129.753 58.9674C129.847 58.9674 129.895 59.1225 129.895 59.4327L129.874 59.6147C129.767 60.0598 129.686 60.4509 129.632 60.788C129.578 61.1117 129.551 61.3882 129.551 61.6175V61.8602C129.551 61.9951 129.517 62.1367 129.45 62.285C129.396 62.4334 129.321 62.5076 129.227 62.5076C129.079 62.5076 128.951 62.2311 128.843 61.6782C128.748 61.0578 128.081 60.7476 126.84 60.7476C126.22 60.7476 125.694 60.7543 125.262 60.7678C124.831 60.7813 124.493 60.8015 124.251 60.8285C124.035 60.842 123.927 61.132 123.927 61.6984V70.9029C123.927 71.7795 124.46 72.3055 125.525 72.4808C125.97 72.5617 126.193 72.6764 126.193 72.8247C126.193 72.9865 125.997 73.0675 125.606 73.0675L123.239 72.9663ZM133.251 72.9461L130.925 73.0675C130.534 73.0675 130.338 72.9865 130.338 72.8247C130.338 72.6764 130.581 72.555 131.066 72.4606C131.552 72.3796 131.909 72.2313 132.139 72.0155C132.381 71.7862 132.503 71.4356 132.503 70.9636V61.8602C132.503 61.3882 132.402 61.051 132.199 60.8487C132.01 60.633 131.68 60.4779 131.208 60.3835C130.722 60.3025 130.48 60.1677 130.48 59.9789C130.48 59.8305 130.675 59.7563 131.066 59.7563L134.647 59.817L139.138 59.7563C139.367 59.7563 139.489 59.817 139.502 59.9384C139.704 61.0308 139.806 61.6984 139.806 61.9411C139.806 62.1974 139.711 62.3255 139.522 62.3255C139.415 62.3255 139.34 62.2581 139.3 62.1232C139.165 61.6916 139.03 61.3612 138.895 61.132C138.774 60.8892 138.605 60.7206 138.39 60.6262C138.187 60.5183 137.891 60.4644 137.499 60.4644H134.849C134.714 60.4644 134.559 60.5318 134.384 60.6667C134.209 60.788 134.121 60.9364 134.121 61.1117V65.4004C134.121 65.5218 134.155 65.6297 134.222 65.7241C134.303 65.805 134.391 65.8455 134.485 65.8455H136.427C137.034 65.8455 137.445 65.5825 137.661 65.0565C137.688 65.0026 137.742 64.9351 137.823 64.8542C137.918 64.7598 137.992 64.7126 138.046 64.7126C138.086 64.7126 138.133 64.7463 138.187 64.8138C138.255 64.8677 138.288 64.9419 138.288 65.0363L138.228 66.1489L138.268 67.5245C138.268 67.7538 138.207 67.8684 138.086 67.8684C137.884 67.8684 137.729 67.7133 137.621 67.4032C137.419 66.7963 137.108 66.4928 136.69 66.4928H134.809C134.553 66.4928 134.371 66.5265 134.263 66.594C134.168 66.6614 134.121 66.803 134.121 67.0188V70.9029C134.121 71.4019 134.222 71.7525 134.425 71.9548C134.64 72.1571 134.984 72.2583 135.456 72.2583H137.56C138.046 72.2583 138.423 72.2111 138.693 72.1167C138.963 72.0223 139.185 71.8604 139.361 71.6312C139.549 71.3884 139.745 71.0512 139.947 70.6197C140.028 70.4848 140.129 70.4174 140.251 70.4174C140.413 70.4174 140.493 70.4915 140.493 70.6399C140.493 70.9096 140.46 71.2198 140.392 71.5705C140.338 71.9076 140.257 72.292 140.15 72.7236C140.082 72.9528 139.988 73.0675 139.866 73.0675L133.251 72.9461ZM151.38 72.9258C150.611 73.1551 149.539 73.2698 148.164 73.2698C147.26 73.2698 146.41 73.0944 145.615 72.7438C144.819 72.3796 144.124 71.8806 143.531 71.2468C142.938 70.6129 142.472 69.8779 142.135 69.0418C141.798 68.2056 141.629 67.3155 141.629 66.3714C141.629 65.4274 141.825 64.544 142.216 63.7214C142.607 62.8987 143.14 62.1772 143.814 61.5568C144.502 60.9229 145.284 60.4307 146.161 60.08C147.051 59.7294 147.995 59.554 148.993 59.554C149.937 59.554 150.652 59.635 151.137 59.7968C151.623 59.9586 152.135 60.08 152.675 60.1609C152.783 60.1609 152.864 60.2958 152.918 60.5655C152.972 60.8353 153.012 61.1522 153.039 61.5163C153.079 61.8805 153.1 62.2041 153.1 62.4873V62.8312C153.1 62.9391 153.1 63.0335 153.1 63.1145C153.1 63.1954 153.093 63.2561 153.079 63.2965C153.039 63.4044 152.972 63.4516 152.877 63.4381C152.607 63.4112 152.432 63.1617 152.351 62.6896C152.27 62.0827 152.034 61.5905 151.643 61.2129C150.955 60.5251 149.93 60.1812 148.568 60.1812C147.88 60.1812 147.24 60.3363 146.646 60.6464C146.053 60.9566 145.527 61.3815 145.068 61.9209C144.623 62.4469 144.273 63.0605 144.017 63.7618C143.774 64.4496 143.652 65.1779 143.652 65.9466C143.652 67.066 143.855 68.1314 144.259 69.1429C144.664 70.1544 145.271 70.9905 146.08 71.6514C146.862 72.3122 147.766 72.6426 148.791 72.6426C150.477 72.6426 151.731 71.8267 152.553 70.1948C152.621 70.087 152.715 69.9993 152.837 69.9319C152.958 69.8779 153.032 69.8375 153.059 69.8105C153.073 69.797 153.086 69.7903 153.1 69.7903C153.194 69.7903 153.241 69.9184 153.241 70.1746C153.12 71.1861 152.891 71.9413 152.553 72.4403C152.486 72.5482 152.095 72.7101 151.38 72.9258ZM157.199 72.9663L154.974 73.0675C154.583 73.0675 154.387 72.9865 154.387 72.8247C154.387 72.6898 154.623 72.5685 155.095 72.4606C155.567 72.3796 155.878 72.238 156.026 72.0357C156.188 71.82 156.269 71.4626 156.269 70.9636V61.8198C156.269 61.3208 156.208 60.9769 156.087 60.788C155.965 60.5992 155.675 60.4644 155.217 60.3835C154.758 60.3025 154.529 60.1677 154.529 59.9789C154.529 59.8305 154.724 59.7563 155.116 59.7563L157.199 59.817L159.344 59.7563C159.735 59.7563 159.93 59.8305 159.93 59.9789C159.93 60.1677 159.708 60.3025 159.263 60.3835C158.346 60.5453 157.887 61.0241 157.887 61.8198V65.7039C157.887 65.8252 157.981 65.8859 158.17 65.8859H165.675C165.77 65.8859 165.817 65.805 165.817 65.6432V61.7995C165.817 61.0173 165.372 60.5453 164.482 60.3835C164.037 60.3025 163.814 60.1677 163.814 59.9789C163.814 59.8305 164.01 59.7563 164.401 59.7563L166.748 59.817L168.588 59.7563C168.98 59.7563 169.175 59.8305 169.175 59.9789C169.175 60.1677 168.953 60.3025 168.508 60.3835C168.049 60.4644 167.752 60.6127 167.617 60.8285C167.496 61.0308 167.435 61.3545 167.435 61.7995V70.9433C167.435 71.4693 167.503 71.8402 167.638 72.056C167.773 72.2583 168.069 72.3999 168.528 72.4808C168.986 72.5617 169.216 72.6764 169.216 72.8247C169.216 72.9865 169.02 73.0675 168.629 73.0675L166.525 72.9663L164.36 73.0675C163.969 73.0675 163.774 72.9865 163.774 72.8247C163.774 72.6764 163.996 72.5617 164.441 72.4808C165.358 72.292 165.817 71.7997 165.817 71.004V67.1604C165.817 66.9581 165.783 66.8569 165.716 66.8569H157.988C157.921 66.8569 157.887 66.9311 157.887 67.0795V70.822C157.887 71.24 158.035 71.6042 158.332 71.9144C158.629 72.2111 159.006 72.3999 159.465 72.4808C159.923 72.5617 160.153 72.6764 160.153 72.8247C160.153 72.9865 159.957 73.0675 159.566 73.0675L157.199 72.9663ZM183.408 72.8045C183.408 73.1416 183.267 73.3102 182.983 73.3102C182.848 73.3102 182.612 73.1956 182.275 72.9663C181.938 72.737 181.614 72.3999 181.304 71.9548C181.129 71.7256 180.441 70.8827 179.241 69.4261C178.054 67.9561 176.355 65.8724 174.143 63.1751C173.968 62.9594 173.826 62.8515 173.718 62.8515C173.597 62.8515 173.536 62.9931 173.536 63.2763C173.509 64.9486 173.482 66.4186 173.455 67.6864C173.442 68.9406 173.435 69.9993 173.435 70.8624C173.435 71.7795 173.866 72.319 174.73 72.4808C175.175 72.5617 175.397 72.6764 175.397 72.8247C175.397 72.9865 175.202 73.0675 174.811 73.0675L172.909 72.9663L171.068 73.0675C170.677 73.0675 170.481 72.9865 170.481 72.8247C170.481 72.6764 170.677 72.5685 171.068 72.501C171.324 72.4471 171.54 72.319 171.715 72.1167C171.891 71.9144 172.026 71.6918 172.12 71.4491C172.228 71.1928 172.295 70.9771 172.322 70.8017C172.565 68.7788 172.686 66.0815 172.686 62.7099C172.686 62.049 172.525 61.5568 172.201 61.2331C171.877 60.9094 171.439 60.6599 170.886 60.4846C170.333 60.2958 170.057 60.1137 170.057 59.9384C170.057 59.7496 170.212 59.6552 170.522 59.6552L173.637 59.7563C173.772 59.7563 173.934 59.871 174.123 60.1002C174.177 60.1677 174.345 60.3835 174.628 60.7476C174.912 61.1117 175.269 61.5703 175.701 62.1232C176.146 62.6762 176.624 63.2763 177.137 63.9236C177.649 64.571 178.162 65.2251 178.674 65.8859C179.2 66.5333 179.686 67.1402 180.131 67.7066C180.576 68.2595 180.947 68.7248 181.244 69.1024C181.554 69.4666 181.743 69.6891 181.81 69.77C182.053 70.0667 182.235 70.2151 182.356 70.2151C182.464 70.2151 182.525 70.0735 182.538 69.7903C182.552 69.3587 182.558 68.6034 182.558 67.5245C182.572 66.4456 182.579 65.043 182.579 63.3168V61.5568C182.565 61.314 182.43 61.078 182.174 60.8487C181.918 60.606 181.614 60.4576 181.264 60.4037C180.913 60.3363 180.738 60.2149 180.738 60.0396C180.738 59.8912 180.933 59.817 181.324 59.817H182.478L184.804 59.7563C185.195 59.7563 185.391 59.8305 185.391 59.9789C185.391 60.1677 185.155 60.3025 184.683 60.3835C184.211 60.4779 183.894 60.5992 183.732 60.7476C183.57 60.8959 183.476 61.2129 183.449 61.6984C183.435 61.9546 183.422 63.0066 183.408 64.8542C183.408 66.7019 183.408 69.3519 183.408 72.8045ZM198.369 71.0849C197.816 71.7458 197.101 72.2718 196.224 72.6629C195.348 73.054 194.377 73.2495 193.311 73.2495C192.408 73.2495 191.544 73.0809 190.722 72.7438C189.899 72.3931 189.171 71.9076 188.537 71.2872C187.903 70.6669 187.404 69.9521 187.04 69.1429C186.676 68.3202 186.494 67.4369 186.494 66.4928C186.494 65.2386 186.75 64.099 187.263 63.074C187.788 62.0355 188.591 61.1859 189.67 60.5251C190.735 59.8642 192.003 59.5338 193.473 59.5338C194.377 59.5338 195.226 59.6956 196.022 60.0193C196.831 60.343 197.539 60.8083 198.146 61.4152C198.753 62.0086 199.232 62.7099 199.582 63.5191C199.933 64.3282 200.108 65.2183 200.108 66.1894C200.108 68.091 199.528 69.7228 198.369 71.0849ZM188.456 66.0882C188.456 66.9109 188.584 67.7066 188.84 68.4753C189.097 69.2306 189.454 69.9116 189.913 70.5185C190.385 71.1119 190.931 71.5839 191.551 71.9346C192.185 72.2852 192.866 72.4606 193.594 72.4606C195.064 72.4606 196.191 71.9616 196.973 70.9636C197.755 69.9521 198.146 68.509 198.146 66.6344C198.146 65.3937 197.951 64.3013 197.559 63.3572C197.168 62.3997 196.609 61.6579 195.88 61.132C195.166 60.5925 194.302 60.3228 193.291 60.3228C192.293 60.3228 191.43 60.579 190.702 61.0915C189.973 61.5905 189.414 62.2783 189.022 63.1549C188.645 64.0181 188.456 64.9958 188.456 66.0882ZM204.856 72.9663L202.125 73.0675C201.748 73.0675 201.559 72.9865 201.559 72.8247C201.559 72.6764 201.707 72.5617 202.004 72.4808C202.557 72.3729 202.968 72.2111 203.238 71.9953C203.508 71.7795 203.642 71.4558 203.642 71.0243V61.6377C203.642 61.1657 203.568 60.8622 203.42 60.7274C203.272 60.5925 202.955 60.4779 202.469 60.3835C201.984 60.3025 201.741 60.1677 201.741 59.9789C201.741 59.8305 201.936 59.7563 202.327 59.7563L204.593 59.817L207.142 59.7563C207.533 59.7563 207.729 59.8305 207.729 59.9789C207.729 60.1812 207.54 60.3093 207.162 60.3632C206.785 60.4307 206.508 60.4846 206.333 60.5251C206.171 60.5655 205.989 60.6262 205.787 60.7071C205.436 60.8555 205.261 61.1185 205.261 61.4961V71.0243C205.261 71.4693 205.362 71.7862 205.564 71.9751C205.766 72.1639 206.185 72.2583 206.818 72.2583H209.772C209.826 72.2583 209.994 72.2043 210.278 72.0964C210.979 71.7997 211.539 71.1996 211.957 70.296C212.105 69.8914 212.26 69.6891 212.422 69.6891C212.57 69.6891 212.645 69.8105 212.645 70.0532C212.631 70.0667 212.624 70.087 212.624 70.1139V70.1544C212.328 71.3007 212.146 72.1571 212.078 72.7236C212.051 72.9528 211.957 73.0675 211.795 73.0675L204.856 72.9663ZM225.414 71.0849C224.861 71.7458 224.146 72.2718 223.27 72.6629C222.393 73.054 221.422 73.2495 220.357 73.2495C219.453 73.2495 218.59 73.0809 217.767 72.7438C216.944 72.3931 216.216 71.9076 215.582 71.2872C214.948 70.6669 214.449 69.9521 214.085 69.1429C213.721 68.3202 213.539 67.4369 213.539 66.4928C213.539 65.2386 213.795 64.099 214.308 63.074C214.834 62.0355 215.636 61.1859 216.715 60.5251C217.781 59.8642 219.048 59.5338 220.518 59.5338C221.422 59.5338 222.272 59.6956 223.067 60.0193C223.876 60.343 224.585 60.8083 225.191 61.4152C225.798 62.0086 226.277 62.7099 226.628 63.5191C226.978 64.3282 227.154 65.2183 227.154 66.1894C227.154 68.091 226.574 69.7228 225.414 71.0849ZM215.501 66.0882C215.501 66.9109 215.63 67.7066 215.886 68.4753C216.142 69.2306 216.499 69.9116 216.958 70.5185C217.43 71.1119 217.976 71.5839 218.597 71.9346C219.23 72.2852 219.911 72.4606 220.64 72.4606C222.11 72.4606 223.236 71.9616 224.018 70.9636C224.8 69.9521 225.191 68.509 225.191 66.6344C225.191 65.3937 224.996 64.3013 224.605 63.3572C224.214 62.3997 223.654 61.6579 222.926 61.132C222.211 60.5925 221.348 60.3228 220.336 60.3228C219.338 60.3228 218.475 60.579 217.747 61.0915C217.019 61.5905 216.459 62.2783 216.068 63.1549C215.69 64.0181 215.501 64.9958 215.501 66.0882ZM240.014 72.2583C239.542 72.4875 238.941 72.7101 238.213 72.9258C237.485 73.1416 236.743 73.2495 235.988 73.2495C235.044 73.2495 234.147 73.0877 233.297 72.764C232.448 72.4269 231.699 71.9548 231.052 71.3479C230.404 70.741 229.892 70.033 229.514 69.2238C229.15 68.4146 228.968 67.5313 228.968 66.5737C228.968 65.6162 229.164 64.7193 229.555 63.8832C229.946 63.0335 230.479 62.285 231.153 61.6377C231.841 60.9903 232.637 60.4846 233.54 60.1205C234.444 59.7428 235.401 59.554 236.413 59.554C236.696 59.554 237.067 59.581 237.525 59.635C237.997 59.6889 238.469 59.7631 238.941 59.8575C239.413 59.9384 239.811 60.0261 240.135 60.1205C240.459 60.2014 240.62 60.2756 240.62 60.343C240.688 60.8555 240.742 61.2803 240.782 61.6175C240.823 61.9411 240.843 62.1772 240.843 62.3255C240.843 62.784 240.749 63.0133 240.56 63.0133C240.371 63.0133 240.202 62.8178 240.054 62.4267C239.919 62.0355 239.737 61.7051 239.508 61.4354C239.279 61.1657 238.887 60.9094 238.335 60.6667C237.755 60.4374 237.053 60.3228 236.231 60.3228C235.219 60.3228 234.316 60.5992 233.52 61.1522C232.724 61.7051 232.097 62.4536 231.639 63.3977C231.193 64.3417 230.971 65.3937 230.971 66.5535C230.971 67.7133 231.214 68.7451 231.699 69.6486C232.185 70.5387 232.832 71.24 233.641 71.7525C234.45 72.2515 235.327 72.501 236.271 72.501C237.417 72.501 238.213 72.2785 238.658 71.8334C239.117 71.3749 239.346 70.8287 239.346 70.1948L239.386 69.0215C239.386 68.6978 239.333 68.4686 239.225 68.3337C239.117 68.1854 238.84 68.0572 238.395 67.9494C238.179 67.8954 237.991 67.8549 237.829 67.828C237.68 67.801 237.559 67.7875 237.465 67.7875C237.289 67.7875 237.148 67.7538 237.04 67.6864C236.945 67.6189 236.898 67.538 236.898 67.4436C236.898 67.3492 236.945 67.2683 237.04 67.2009C237.148 67.1334 237.235 67.0997 237.303 67.0997L239.852 67.1806L241.652 67.0997C241.935 67.0997 242.077 67.2076 242.077 67.4234C242.077 67.5043 242.023 67.5852 241.915 67.6661C241.807 67.7336 241.666 67.7875 241.49 67.828C241.248 67.8954 241.066 68.064 240.944 68.3337C240.836 68.59 240.769 68.8934 240.742 69.244C240.715 69.5947 240.701 69.9453 240.701 70.296V70.8422C240.701 70.9905 240.769 71.1254 240.904 71.2468C241.025 71.3817 241.086 71.4693 241.086 71.5098C241.086 71.739 240.991 71.8672 240.803 71.8941C240.749 71.9076 240.486 72.029 240.014 72.2583ZM246.356 72.9663L243.767 73.0675C243.375 73.0675 243.18 72.9865 243.18 72.8247C243.18 72.6764 243.429 72.555 243.928 72.4606C244.414 72.3796 244.785 72.2313 245.041 72.0155C245.297 71.7862 245.425 71.4423 245.425 70.9838V61.84C245.425 61.368 245.324 61.0308 245.122 60.8285C244.933 60.6262 244.603 60.4779 244.131 60.3835C243.645 60.3025 243.402 60.1677 243.402 59.9789C243.402 59.8305 243.598 59.7563 243.989 59.7563L246.356 59.817L248.561 59.7563C248.952 59.7563 249.148 59.8305 249.148 59.9789C249.148 60.1677 248.905 60.3025 248.419 60.3835C247.934 60.4779 247.583 60.633 247.367 60.8487C247.152 61.051 247.044 61.3815 247.044 61.84V70.9838C247.044 71.4423 247.172 71.7862 247.428 72.0155C247.698 72.2313 248.082 72.3796 248.581 72.4606C249.067 72.555 249.309 72.6764 249.309 72.8247C249.309 72.9865 249.114 73.0675 248.723 73.0675L246.356 72.9663ZM253.049 72.9461L250.722 73.0675C250.331 73.0675 250.136 72.9865 250.136 72.8247C250.136 72.6764 250.378 72.555 250.864 72.4606C251.349 72.3796 251.707 72.2313 251.936 72.0155C252.179 71.7862 252.3 71.4356 252.3 70.9636V61.8602C252.3 61.3882 252.199 61.051 251.997 60.8487C251.808 60.633 251.478 60.4779 251.006 60.3835C250.52 60.3025 250.277 60.1677 250.277 59.9789C250.277 59.8305 250.473 59.7563 250.864 59.7563L254.445 59.817L258.936 59.7563C259.165 59.7563 259.286 59.817 259.3 59.9384C259.502 61.0308 259.603 61.6984 259.603 61.9411C259.603 62.1974 259.509 62.3255 259.32 62.3255C259.212 62.3255 259.138 62.2581 259.097 62.1232C258.963 61.6916 258.828 61.3612 258.693 61.132C258.571 60.8892 258.403 60.7206 258.187 60.6262C257.985 60.5183 257.688 60.4644 257.297 60.4644H254.647C254.512 60.4644 254.357 60.5318 254.182 60.6667C254.006 60.788 253.919 60.9364 253.919 61.1117V65.4004C253.919 65.5218 253.952 65.6297 254.02 65.7241C254.101 65.805 254.188 65.8455 254.283 65.8455H256.225C256.832 65.8455 257.243 65.5825 257.459 65.0565C257.486 65.0026 257.54 64.9351 257.621 64.8542C257.715 64.7598 257.789 64.7126 257.843 64.7126C257.884 64.7126 257.931 64.7463 257.985 64.8138C258.052 64.8677 258.086 64.9419 258.086 65.0363L258.025 66.1489L258.066 67.5245C258.066 67.7538 258.005 67.8684 257.884 67.8684C257.681 67.8684 257.526 67.7133 257.418 67.4032C257.216 66.7963 256.906 66.4928 256.488 66.4928H254.606C254.35 66.4928 254.168 66.5265 254.06 66.594C253.966 66.6614 253.919 66.803 253.919 67.0188V70.9029C253.919 71.4019 254.02 71.7525 254.222 71.9548C254.438 72.1571 254.782 72.2583 255.254 72.2583H257.358C257.843 72.2583 258.221 72.2111 258.491 72.1167C258.76 72.0223 258.983 71.8604 259.158 71.6312C259.347 71.3884 259.542 71.0512 259.745 70.6197C259.826 70.4848 259.927 70.4174 260.048 70.4174C260.21 70.4174 260.291 70.4915 260.291 70.6399C260.291 70.9096 260.257 71.2198 260.19 71.5705C260.136 71.9076 260.055 72.292 259.947 72.7236C259.88 72.9528 259.785 73.0675 259.664 73.0675L253.049 72.9461ZM269.033 69.7296C269.033 70.3499 268.878 70.9299 268.568 71.4693C268.258 72.0088 267.793 72.4471 267.172 72.7842C266.552 73.1214 265.77 73.29 264.826 73.29C263.706 73.29 262.803 73.1281 262.115 72.8045C261.899 72.7101 261.757 72.5954 261.69 72.4606C261.447 71.9481 261.326 71.1726 261.326 70.1342C261.326 70.0263 261.366 69.9049 261.447 69.77C261.542 69.6217 261.65 69.5475 261.771 69.5475C261.879 69.5475 262.074 69.9925 262.358 70.8827C262.749 72.0425 263.659 72.6224 265.089 72.6224C265.776 72.6224 266.323 72.4134 266.727 71.9953C267.132 71.5772 267.334 71.0108 267.334 70.296C267.334 69.1631 266.309 67.9089 264.259 66.5333C263.436 65.9803 262.803 65.4206 262.358 64.8542C261.913 64.2878 261.69 63.5932 261.69 62.7706C261.69 62.2176 261.865 61.6984 262.216 61.2129C262.567 60.7139 263.045 60.3093 263.652 59.9991C264.273 59.6889 264.974 59.5338 265.756 59.5338C266.457 59.5338 267.017 59.6012 267.435 59.7361C267.853 59.871 268.096 59.9384 268.163 59.9384C268.298 59.9384 268.399 60.0665 268.467 60.3228C268.548 60.579 268.602 60.8757 268.629 61.2129C268.669 61.5365 268.689 61.8198 268.689 62.0625C268.689 62.4267 268.642 62.6087 268.548 62.6087C268.157 62.6087 267.921 62.4199 267.84 62.0423C267.745 61.4624 267.489 61.0106 267.071 60.6869C266.653 60.3632 266.141 60.2014 265.534 60.2014C264.913 60.2014 264.374 60.4037 263.915 60.8083C263.47 61.1994 263.248 61.7254 263.248 62.3862C263.248 62.7908 263.396 63.1819 263.693 63.5595C263.989 63.9236 264.347 64.2608 264.765 64.571C265.183 64.8677 265.574 65.1374 265.938 65.3802C268.002 66.7153 269.033 68.1651 269.033 69.7296Z" fill="#C6426E"/>
<defs>
<linearGradient id="paint0_linear_27_943" x1="75.5646" y1="17.3398" x2="75.5646" y2="68.4464" gradientUnits="userSpaceOnUse">
<stop stop-color="#642B73"/>
<stop offset="1" stop-color="#C6426E"/>
</linearGradient>
<linearGradient id="paint1_linear_27_943" x1="75.3823" y1="43.2578" x2="75.3823" y2="94.3643" gradientUnits="userSpaceOnUse">
<stop stop-color="#CB356B"/>
<stop offset="1" stop-color="#BD3F32"/>
</linearGradient>
</defs>
</svg>
