<svg width="268" height="78" viewBox="0 0 268 78" fill="none" xmlns="http://www.w3.org/2000/svg">
<path d="M29.7625 41.8169V4.15402C29.7625 1.85982 31.6223 0 33.9165 0H75.8836C79.6936 0 81.4937 4.70088 78.6581 7.24561L36.691 44.9084C34.0164 47.3087 29.7625 45.4105 29.7625 41.8169Z" fill="url(#paint0_linear_83_560)"/>
<g style="mix-blend-mode:multiply">
<path d="M29.5802 67.7453V30.0824C29.5802 27.7882 31.44 25.9284 33.7342 25.9284H75.7014C79.5114 25.9284 81.3114 30.6293 78.4759 33.174L36.5087 70.8369C33.8342 73.2371 29.5802 71.3389 29.5802 67.7453Z" fill="url(#paint1_linear_83_560)"/>
</g>
<path d="M25.9285 25.5632L25.9285 60.6502C25.9285 66.0798 21.5269 70.4814 16.0973 70.4814H9.53674e-05L9.53674e-05 35.3944C9.53674e-05 29.9648 4.40166 25.5632 9.83127 25.5632H25.9285Z" fill="#642B73"/>
<circle cx="14.7897" cy="11.1382" r="11.1382" fill="#C6426E"/>
<path d="M95.4284 31V7.1313H103.095V31H95.4284ZM108.566 7.1313H127.855V12.8556H116.233V16.9494H126.224V22.4309H116.233V31H108.566V7.1313ZM141.732 6.71498C144.785 6.71498 147.294 7.33945 149.26 8.5884C151.226 9.81421 152.232 11.6414 152.278 14.0699V14.4862H145.097V14.3474C145.097 13.6536 144.843 13.0753 144.334 12.6128C143.825 12.1502 143.05 11.9189 142.009 11.9189C140.992 11.9189 140.205 12.0693 139.65 12.3699C139.118 12.6706 138.852 13.0407 138.852 13.4801C138.852 14.1046 139.222 14.5671 139.962 14.8678C140.702 15.1685 141.894 15.4807 143.536 15.8045C145.455 16.1977 147.028 16.614 148.254 17.0535C149.503 17.4698 150.59 18.1636 151.515 19.135C152.44 20.1064 152.914 21.4248 152.938 23.09C152.938 25.9117 151.978 28.0048 150.058 29.3694C148.161 30.734 145.617 31.4163 142.426 31.4163C138.702 31.4163 135.799 30.7918 133.718 29.5429C131.659 28.294 130.63 26.0852 130.63 22.9166H137.881C137.881 24.1192 138.193 24.9287 138.818 25.3451C139.442 25.7382 140.413 25.9348 141.732 25.9348C142.703 25.9348 143.501 25.8308 144.126 25.6226C144.773 25.4144 145.097 24.9866 145.097 24.339C145.097 23.7608 144.738 23.3329 144.021 23.0553C143.328 22.7547 142.183 22.4424 140.587 22.1186C138.644 21.7023 137.037 21.2744 135.765 20.835C134.492 20.3724 133.382 19.6207 132.434 18.5799C131.486 17.5392 131.012 16.1283 131.012 14.3474C131.012 11.7339 132.018 9.81421 134.03 8.5884C136.065 7.33945 138.632 6.71498 141.732 6.71498ZM170.481 13.2372V31H162.814V13.2372H154.973V7.1313H178.287V13.2372H170.481ZM195.402 31L194.396 27.6348H186.035L185.028 31H177.188L185.896 7.1313H194.812L203.52 31H195.402ZM187.63 22.2921H192.8L190.302 13.7923H190.163L187.63 22.2921ZM217.743 13.2372V31H210.076V13.2372H202.236V7.1313H225.549V13.2372H217.743ZM229.389 31V7.1313H237.056V31H229.389ZM253.905 6.71498C257.444 6.71498 260.243 7.60543 262.301 9.38633C264.36 11.1441 265.389 13.6651 265.389 16.9494H258.069C258.069 15.5617 257.699 14.4631 256.958 13.6536C256.241 12.8441 255.212 12.4393 253.871 12.4393C252.321 12.4393 251.176 12.925 250.436 13.8964C249.719 14.8678 249.361 16.2208 249.361 17.9555V20.1758C249.361 21.8873 249.719 23.2404 250.436 24.2349C251.176 25.2063 252.298 25.692 253.801 25.692C255.282 25.692 256.403 25.3104 257.167 24.5471C257.93 23.7839 258.311 22.7084 258.311 21.3207H265.389C265.389 24.5818 264.383 27.0797 262.371 28.8143C260.381 30.549 257.56 31.4163 253.905 31.4163C249.835 31.4163 246.747 30.3755 244.642 28.294C242.561 26.2124 241.52 23.1363 241.52 19.0656C241.52 14.995 242.561 11.9189 244.642 9.83734C246.747 7.75577 249.835 6.71498 253.905 6.71498Z" fill="#642B73"/>
<path d="M105.94 55.6433L103.35 55.7445C102.958 55.7445 102.763 55.6636 102.763 55.5017C102.763 55.3533 103.005 55.2386 103.491 55.1576C104.503 54.9688 105.009 54.4426 105.009 53.5791V44.371C105.009 43.9393 104.928 43.6762 104.766 43.5818C104.604 43.4738 104.301 43.4199 103.855 43.4199H102.196C101.845 43.4199 101.515 43.4873 101.204 43.6223C100.894 43.7572 100.685 43.9258 100.577 44.1282C100.469 44.3441 100.327 44.5397 100.152 44.7151C99.9901 44.8905 99.8417 44.9782 99.7068 44.9782C99.6123 44.9782 99.5651 44.8972 99.5651 44.7353C99.5651 44.6139 99.5988 44.4722 99.6663 44.3103C99.9631 43.7032 100.172 42.9544 100.294 42.064C100.334 41.7537 100.449 41.5985 100.638 41.5985C100.746 41.5985 100.914 41.8144 101.144 42.2461C101.292 42.5159 101.764 42.6509 102.56 42.6509H110.271C110.783 42.6509 111.175 42.5564 111.445 42.3675C111.552 42.3001 111.674 42.1989 111.809 42.064C111.957 41.9291 112.079 41.8279 112.173 41.7604C112.268 41.6795 112.362 41.639 112.456 41.639C112.551 41.639 112.598 41.7941 112.598 42.1044L112.578 42.2866C112.47 42.7318 112.389 43.1231 112.335 43.4604C112.281 43.7842 112.254 44.0607 112.254 44.2901V44.5329C112.254 44.6679 112.22 44.8095 112.153 44.9579C112.099 45.1063 112.025 45.1805 111.93 45.1805C111.782 45.1805 111.654 44.904 111.546 44.3508C111.451 43.7302 110.783 43.4199 109.542 43.4199C108.922 43.4199 108.395 43.4266 107.964 43.4401C107.532 43.4536 107.195 43.4738 106.952 43.5008C106.736 43.5143 106.628 43.8044 106.628 44.371V53.5791C106.628 54.4561 107.161 54.9822 108.227 55.1576C108.672 55.2386 108.895 55.3533 108.895 55.5017C108.895 55.6636 108.699 55.7445 108.308 55.7445L105.94 55.6433ZM115.956 55.6231L113.629 55.7445C113.237 55.7445 113.042 55.6636 113.042 55.5017C113.042 55.3533 113.285 55.2318 113.77 55.1374C114.256 55.0565 114.613 54.908 114.843 54.6922C115.086 54.4628 115.207 54.112 115.207 53.6398V44.5329C115.207 44.0607 115.106 43.7234 114.904 43.5211C114.715 43.3052 114.384 43.15 113.912 43.0556C113.426 42.9747 113.183 42.8397 113.183 42.6509C113.183 42.5024 113.379 42.4282 113.77 42.4282L117.352 42.489L121.845 42.4282C122.074 42.4282 122.196 42.489 122.209 42.6104C122.412 43.7032 122.513 44.371 122.513 44.6139C122.513 44.8702 122.418 44.9984 122.23 44.9984C122.122 44.9984 122.047 44.9309 122.007 44.796C121.872 44.3643 121.737 44.0338 121.602 43.8044C121.481 43.5615 121.312 43.3929 121.096 43.2985C120.894 43.1905 120.597 43.1366 120.206 43.1366H117.555C117.42 43.1366 117.265 43.204 117.089 43.3389C116.914 43.4604 116.826 43.6088 116.826 43.7842V48.0745C116.826 48.1959 116.86 48.3039 116.927 48.3983C117.008 48.4793 117.096 48.5197 117.19 48.5197H119.133C119.74 48.5197 120.152 48.2566 120.368 47.7305C120.395 47.6765 120.449 47.609 120.53 47.5281C120.624 47.4337 120.698 47.3864 120.752 47.3864C120.793 47.3864 120.84 47.4202 120.894 47.4876C120.961 47.5416 120.995 47.6158 120.995 47.7102L120.934 48.8233L120.975 50.1994C120.975 50.4288 120.914 50.5435 120.793 50.5435C120.59 50.5435 120.435 50.3883 120.327 50.078C120.125 49.4709 119.815 49.1673 119.396 49.1673H117.514C117.258 49.1673 117.076 49.2011 116.968 49.2685C116.873 49.336 116.826 49.4776 116.826 49.6935V53.5791C116.826 54.0783 116.927 54.4291 117.13 54.6315C117.346 54.8338 117.69 54.935 118.162 54.935H120.266C120.752 54.935 121.13 54.8878 121.4 54.7934C121.67 54.6989 121.892 54.537 122.068 54.3077C122.257 54.0648 122.452 53.7275 122.655 53.2958C122.735 53.1609 122.837 53.0934 122.958 53.0934C123.12 53.0934 123.201 53.1676 123.201 53.316C123.201 53.5859 123.167 53.8962 123.1 54.247C123.046 54.5842 122.965 54.9688 122.857 55.4005C122.789 55.6298 122.695 55.7445 122.574 55.7445L115.956 55.6231ZM134.092 55.6029C133.323 55.8322 132.25 55.9469 130.874 55.9469C129.97 55.9469 129.12 55.7715 128.324 55.4207C127.528 55.0565 126.833 54.5573 126.24 53.9232C125.646 53.289 125.181 52.5537 124.843 51.7173C124.506 50.8808 124.337 49.9903 124.337 49.0459C124.337 48.1015 124.533 47.2178 124.924 46.3948C125.316 45.5718 125.848 44.85 126.523 44.2294C127.211 43.5953 127.994 43.1028 128.871 42.752C129.761 42.4013 130.705 42.2259 131.704 42.2259C132.648 42.2259 133.363 42.3068 133.849 42.4687C134.335 42.6306 134.847 42.752 135.387 42.833C135.495 42.833 135.576 42.9679 135.63 43.2377C135.684 43.5076 135.724 43.8246 135.751 44.1889C135.792 44.5532 135.812 44.877 135.812 45.1603V45.5043C135.812 45.6123 135.812 45.7067 135.812 45.7877C135.812 45.8686 135.805 45.9293 135.792 45.9698C135.751 46.0777 135.684 46.125 135.589 46.1115C135.32 46.0845 135.144 45.8349 135.063 45.3627C134.982 44.7556 134.746 44.2631 134.355 43.8853C133.667 43.1973 132.642 42.8532 131.279 42.8532C130.591 42.8532 129.95 43.0084 129.356 43.3187C128.763 43.629 128.236 44.054 127.778 44.5937C127.333 45.1198 126.982 45.7337 126.725 46.4353C126.483 47.1233 126.361 47.8519 126.361 48.6209C126.361 49.7407 126.564 50.8066 126.968 51.8185C127.373 52.8303 127.98 53.6668 128.79 54.3279C129.572 54.989 130.476 55.3195 131.501 55.3195C133.188 55.3195 134.443 54.5033 135.266 52.8708C135.333 52.7629 135.428 52.6752 135.549 52.6077C135.67 52.5537 135.745 52.5133 135.772 52.4863C135.785 52.4728 135.799 52.4661 135.812 52.4661C135.907 52.4661 135.954 52.5942 135.954 52.8506C135.832 53.8624 135.603 54.618 135.266 55.1172C135.198 55.2251 134.807 55.387 134.092 55.6029ZM139.913 55.6433L137.687 55.7445C137.296 55.7445 137.1 55.6636 137.1 55.5017C137.1 55.3668 137.336 55.2453 137.808 55.1374C138.281 55.0565 138.591 54.9148 138.739 54.7124C138.901 54.4965 138.982 54.139 138.982 53.6398V44.4925C138.982 43.9933 138.922 43.6492 138.8 43.4604C138.679 43.2715 138.389 43.1366 137.93 43.0556C137.471 42.9747 137.242 42.8397 137.242 42.6509C137.242 42.5024 137.437 42.4282 137.829 42.4282L139.913 42.489L142.058 42.4282C142.45 42.4282 142.645 42.5024 142.645 42.6509C142.645 42.8397 142.423 42.9747 141.977 43.0556C141.06 43.2175 140.601 43.6965 140.601 44.4925V48.3781C140.601 48.4995 140.696 48.5602 140.885 48.5602H148.393C148.487 48.5602 148.534 48.4793 148.534 48.3174V44.4722C148.534 43.6897 148.089 43.2175 147.199 43.0556C146.753 42.9747 146.531 42.8397 146.531 42.6509C146.531 42.5024 146.726 42.4282 147.118 42.4282L149.465 42.489L151.307 42.4282C151.698 42.4282 151.894 42.5024 151.894 42.6509C151.894 42.8397 151.671 42.9747 151.226 43.0556C150.767 43.1366 150.47 43.285 150.335 43.5008C150.214 43.7032 150.153 44.027 150.153 44.4722V53.6196C150.153 54.1458 150.221 54.5168 150.356 54.7327C150.491 54.935 150.787 55.0767 151.246 55.1576C151.705 55.2386 151.934 55.3533 151.934 55.5017C151.934 55.6636 151.739 55.7445 151.347 55.7445L149.243 55.6433L147.077 55.7445C146.686 55.7445 146.49 55.6636 146.49 55.5017C146.49 55.3533 146.713 55.2386 147.158 55.1576C148.076 54.9688 148.534 54.4763 148.534 53.6803V49.8352C148.534 49.6328 148.501 49.5316 148.433 49.5316H140.702C140.635 49.5316 140.601 49.6058 140.601 49.7542V53.4982C140.601 53.9164 140.75 54.2807 141.046 54.591C141.343 54.8878 141.721 55.0767 142.18 55.1576C142.638 55.2386 142.868 55.3533 142.868 55.5017C142.868 55.6636 142.672 55.7445 142.281 55.7445L139.913 55.6433ZM166.132 55.4814C166.132 55.8187 165.991 55.9874 165.707 55.9874C165.572 55.9874 165.336 55.8727 164.999 55.6433C164.662 55.414 164.338 55.0767 164.028 54.6315C163.852 54.4021 163.164 53.5589 161.963 52.1018C160.776 50.6312 159.076 48.5467 156.864 45.8484C156.688 45.6325 156.546 45.5246 156.439 45.5246C156.317 45.5246 156.256 45.6662 156.256 45.9496C156.229 47.6225 156.202 49.0931 156.175 50.3613C156.162 51.6161 156.155 52.6752 156.155 53.5386C156.155 54.4561 156.587 54.9957 157.45 55.1576C157.896 55.2386 158.118 55.3533 158.118 55.5017C158.118 55.6636 157.923 55.7445 157.531 55.7445L155.629 55.6433L153.787 55.7445C153.396 55.7445 153.201 55.6636 153.201 55.5017C153.201 55.3533 153.396 55.2453 153.787 55.1779C154.044 55.1239 154.26 54.9957 154.435 54.7934C154.61 54.591 154.745 54.3684 154.84 54.1255C154.948 53.8692 155.015 53.6533 155.042 53.4779C155.285 51.4542 155.406 48.7558 155.406 45.3829C155.406 44.7218 155.245 44.2294 154.921 43.9056C154.597 43.5818 154.158 43.3322 153.605 43.1568C153.052 42.9679 152.776 42.7858 152.776 42.6104C152.776 42.4215 152.931 42.3271 153.241 42.3271L156.358 42.4282C156.492 42.4282 156.654 42.5429 156.843 42.7723C156.897 42.8397 157.066 43.0556 157.349 43.4199C157.633 43.7842 157.99 44.2429 158.422 44.796C158.867 45.3492 159.346 45.9496 159.859 46.5972C160.371 47.2448 160.884 47.8991 161.397 48.5602C161.923 49.2078 162.409 49.8149 162.854 50.3816C163.299 50.9347 163.67 51.4002 163.967 51.778C164.277 52.1423 164.466 52.3649 164.534 52.4458C164.776 52.7426 164.959 52.891 165.08 52.891C165.188 52.891 165.249 52.7494 165.262 52.4661C165.276 52.0343 165.282 51.2788 165.282 50.1994C165.296 49.1201 165.303 47.717 165.303 45.99V44.2294C165.289 43.9865 165.154 43.7504 164.898 43.5211C164.641 43.2782 164.338 43.1298 163.987 43.0758C163.636 43.0084 163.461 42.887 163.461 42.7116C163.461 42.5632 163.657 42.489 164.048 42.489H165.201L167.529 42.4282C167.92 42.4282 168.116 42.5024 168.116 42.6509C168.116 42.8397 167.879 42.9747 167.407 43.0556C166.935 43.15 166.618 43.2715 166.456 43.4199C166.294 43.5683 166.2 43.8853 166.173 44.371C166.159 44.6274 166.146 45.6797 166.132 47.5281C166.132 49.3765 166.132 52.0276 166.132 55.4814ZM181.099 53.7613C180.545 54.4223 179.83 54.9485 178.953 55.3398C178.076 55.731 177.105 55.9267 176.039 55.9267C175.135 55.9267 174.272 55.758 173.449 55.4207C172.626 55.0699 171.897 54.5842 171.263 53.9636C170.629 53.343 170.13 52.628 169.766 51.8185C169.401 50.9955 169.219 50.1118 169.219 49.1673C169.219 47.9126 169.475 46.7726 169.988 45.7472C170.514 44.7083 171.317 43.8584 172.396 43.1973C173.462 42.5362 174.73 42.2056 176.201 42.2056C177.105 42.2056 177.955 42.3675 178.751 42.6913C179.561 43.0151 180.269 43.4806 180.876 44.0877C181.483 44.6814 181.962 45.3829 182.313 46.1924C182.664 47.0019 182.839 47.8924 182.839 48.8638C182.839 50.7661 182.259 52.3986 181.099 53.7613ZM171.182 48.7626C171.182 49.5856 171.31 50.3816 171.567 51.1506C171.823 51.9061 172.181 52.5875 172.639 53.1946C173.111 53.7882 173.658 54.2604 174.279 54.6112C174.913 54.962 175.594 55.1374 176.323 55.1374C177.793 55.1374 178.92 54.6382 179.702 53.6398C180.485 52.628 180.876 51.1843 180.876 49.309C180.876 48.0678 180.68 46.9749 180.289 46.0305C179.898 45.0726 179.338 44.3306 178.609 43.8044C177.894 43.2647 177.031 42.9949 176.019 42.9949C175.021 42.9949 174.157 43.2512 173.429 43.7639C172.7 44.2631 172.14 44.9512 171.749 45.8281C171.371 46.6916 171.182 47.6698 171.182 48.7626ZM187.589 55.6433L184.857 55.7445C184.479 55.7445 184.29 55.6636 184.29 55.5017C184.29 55.3533 184.438 55.2386 184.735 55.1576C185.288 55.0497 185.7 54.8878 185.97 54.6719C186.239 54.4561 186.374 54.1323 186.374 53.7005V44.3103C186.374 43.8381 186.3 43.5346 186.152 43.3996C186.003 43.2647 185.686 43.15 185.201 43.0556C184.715 42.9747 184.472 42.8397 184.472 42.6509C184.472 42.5024 184.668 42.4282 185.059 42.4282L187.326 42.489L189.875 42.4282C190.267 42.4282 190.462 42.5024 190.462 42.6509C190.462 42.8532 190.273 42.9814 189.896 43.0354C189.518 43.1028 189.241 43.1568 189.066 43.1973C188.904 43.2377 188.722 43.2985 188.52 43.3794C188.169 43.5278 187.993 43.7909 187.993 44.1687V53.7005C187.993 54.1458 188.095 54.4628 188.297 54.6517C188.499 54.8406 188.918 54.935 189.552 54.935H192.506C192.56 54.935 192.729 54.8811 193.012 54.7731C193.714 54.4763 194.274 53.8759 194.692 52.972C194.84 52.5672 194.996 52.3649 195.157 52.3649C195.306 52.3649 195.38 52.4863 195.38 52.7291C195.367 52.7426 195.36 52.7629 195.36 52.7899V52.8303C195.063 53.9771 194.881 54.8338 194.813 55.4005C194.786 55.6298 194.692 55.7445 194.53 55.7445L187.589 55.6433ZM208.154 53.7613C207.601 54.4223 206.886 54.9485 206.009 55.3398C205.132 55.731 204.161 55.9267 203.095 55.9267C202.191 55.9267 201.328 55.758 200.505 55.4207C199.682 55.0699 198.953 54.5842 198.319 53.9636C197.685 53.343 197.186 52.628 196.821 51.8185C196.457 50.9955 196.275 50.1118 196.275 49.1673C196.275 47.9126 196.531 46.7726 197.044 45.7472C197.57 44.7083 198.373 43.8584 199.452 43.1973C200.518 42.5362 201.786 42.2056 203.257 42.2056C204.161 42.2056 205.011 42.3675 205.807 42.6913C206.616 43.0151 207.325 43.4806 207.932 44.0877C208.539 44.6814 209.018 45.3829 209.369 46.1924C209.719 47.0019 209.895 47.8924 209.895 48.8638C209.895 50.7661 209.315 52.3986 208.154 53.7613ZM198.238 48.7626C198.238 49.5856 198.366 50.3816 198.623 51.1506C198.879 51.9061 199.236 52.5875 199.695 53.1946C200.167 53.7882 200.714 54.2604 201.334 54.6112C201.968 54.962 202.65 55.1374 203.378 55.1374C204.849 55.1374 205.975 54.6382 206.758 53.6398C207.541 52.628 207.932 51.1843 207.932 49.309C207.932 48.0678 207.736 46.9749 207.345 46.0305C206.954 45.0726 206.394 44.3306 205.665 43.8044C204.95 43.2647 204.087 42.9949 203.075 42.9949C202.076 42.9949 201.213 43.2512 200.484 43.7639C199.756 44.2631 199.196 44.9512 198.805 45.8281C198.427 46.6916 198.238 47.6698 198.238 48.7626ZM222.76 54.935C222.287 55.1644 221.687 55.387 220.959 55.6029C220.23 55.8187 219.488 55.9267 218.732 55.9267C217.788 55.9267 216.891 55.7648 216.041 55.441C215.191 55.1037 214.442 54.6315 213.794 54.0243C213.147 53.4172 212.634 52.7089 212.256 51.8994C211.892 51.0899 211.71 50.2062 211.71 49.2483C211.71 48.2904 211.906 47.3932 212.297 46.5567C212.688 45.7067 213.221 44.9579 213.896 44.3103C214.584 43.6627 215.38 43.1568 216.284 42.7925C217.188 42.4148 218.146 42.2259 219.157 42.2259C219.441 42.2259 219.812 42.2529 220.27 42.3068C220.743 42.3608 221.215 42.435 221.687 42.5294C222.159 42.6104 222.557 42.6981 222.881 42.7925C223.205 42.8735 223.367 42.9477 223.367 43.0151C223.434 43.5278 223.488 43.9528 223.529 44.2901C223.569 44.6139 223.589 44.85 223.589 44.9984C223.589 45.4571 223.495 45.6865 223.306 45.6865C223.117 45.6865 222.949 45.4909 222.8 45.0996C222.665 44.7083 222.483 44.3778 222.254 44.108C222.024 43.8381 221.633 43.5818 221.08 43.3389C220.5 43.1096 219.798 42.9949 218.975 42.9949C217.963 42.9949 217.059 43.2715 216.263 43.8246C215.467 44.3778 214.84 45.1266 214.381 46.071C213.936 47.0154 213.714 48.0678 213.714 49.228C213.714 50.3883 213.956 51.4204 214.442 52.3244C214.928 53.2148 215.575 53.9164 216.385 54.4291C217.194 54.9283 218.071 55.1779 219.016 55.1779C220.163 55.1779 220.959 54.9553 221.404 54.51C221.863 54.0513 222.092 53.5049 222.092 52.8708L222.132 51.697C222.132 51.3732 222.078 51.1439 221.97 51.0089C221.863 50.8605 221.586 50.7324 221.141 50.6244C220.925 50.5705 220.736 50.53 220.574 50.503C220.426 50.476 220.304 50.4625 220.21 50.4625C220.034 50.4625 219.893 50.4288 219.785 50.3613C219.69 50.2939 219.643 50.2129 219.643 50.1185C219.643 50.0241 219.69 49.9431 219.785 49.8756C219.893 49.8082 219.98 49.7745 220.048 49.7745L222.598 49.8554L224.399 49.7745C224.682 49.7745 224.824 49.8824 224.824 50.0983C224.824 50.1792 224.77 50.2602 224.662 50.3411C224.554 50.4086 224.412 50.4625 224.237 50.503C223.994 50.5705 223.812 50.7391 223.691 51.0089C223.583 51.2653 223.515 51.5689 223.488 51.9196C223.461 52.2704 223.448 52.6212 223.448 52.972V53.5184C223.448 53.6668 223.515 53.8017 223.65 53.9232C223.772 54.0581 223.832 54.1458 223.832 54.1862C223.832 54.4156 223.738 54.5438 223.549 54.5708C223.495 54.5842 223.232 54.7057 222.76 54.935ZM229.104 55.6433L226.514 55.7445C226.123 55.7445 225.927 55.6636 225.927 55.5017C225.927 55.3533 226.177 55.2318 226.676 55.1374C227.162 55.0565 227.533 54.908 227.789 54.6922C228.045 54.4628 228.174 54.1188 228.174 53.6601V44.5127C228.174 44.0405 228.072 43.7032 227.87 43.5008C227.681 43.2985 227.351 43.15 226.878 43.0556C226.393 42.9747 226.15 42.8397 226.15 42.6509C226.15 42.5024 226.345 42.4282 226.737 42.4282L229.104 42.489L231.31 42.4282C231.702 42.4282 231.897 42.5024 231.897 42.6509C231.897 42.8397 231.654 42.9747 231.169 43.0556C230.683 43.15 230.332 43.3052 230.116 43.5211C229.9 43.7234 229.793 44.054 229.793 44.5127V53.6601C229.793 54.1188 229.921 54.4628 230.177 54.6922C230.447 54.908 230.831 55.0565 231.331 55.1374C231.816 55.2318 232.059 55.3533 232.059 55.5017C232.059 55.6636 231.864 55.7445 231.472 55.7445L229.104 55.6433ZM235.8 55.6231L233.473 55.7445C233.081 55.7445 232.886 55.6636 232.886 55.5017C232.886 55.3533 233.129 55.2318 233.614 55.1374C234.1 55.0565 234.458 54.908 234.687 54.6922C234.93 54.4628 235.051 54.112 235.051 53.6398V44.5329C235.051 44.0607 234.95 43.7234 234.748 43.5211C234.559 43.3052 234.228 43.15 233.756 43.0556C233.27 42.9747 233.027 42.8397 233.027 42.6509C233.027 42.5024 233.223 42.4282 233.614 42.4282L237.196 42.489L241.689 42.4282C241.918 42.4282 242.04 42.489 242.053 42.6104C242.256 43.7032 242.357 44.371 242.357 44.6139C242.357 44.8702 242.262 44.9984 242.074 44.9984C241.966 44.9984 241.891 44.9309 241.851 44.796C241.716 44.3643 241.581 44.0338 241.446 43.8044C241.325 43.5615 241.156 43.3929 240.94 43.2985C240.738 43.1905 240.441 43.1366 240.05 43.1366H237.399C237.264 43.1366 237.109 43.204 236.933 43.3389C236.758 43.4604 236.67 43.6088 236.67 43.7842V48.0745C236.67 48.1959 236.704 48.3039 236.771 48.3983C236.852 48.4793 236.94 48.5197 237.034 48.5197H238.977C239.584 48.5197 239.996 48.2566 240.212 47.7305C240.239 47.6765 240.293 47.609 240.374 47.5281C240.468 47.4337 240.542 47.3864 240.596 47.3864C240.637 47.3864 240.684 47.4202 240.738 47.4876C240.805 47.5416 240.839 47.6158 240.839 47.7102L240.778 48.8233L240.819 50.1994C240.819 50.4288 240.758 50.5435 240.637 50.5435C240.434 50.5435 240.279 50.3883 240.171 50.078C239.969 49.4709 239.659 49.1673 239.24 49.1673H237.358C237.102 49.1673 236.92 49.2011 236.812 49.2685C236.717 49.336 236.67 49.4776 236.67 49.6935V53.5791C236.67 54.0783 236.771 54.4291 236.974 54.6315C237.19 54.8338 237.534 54.935 238.006 54.935H240.111C240.596 54.935 240.974 54.8878 241.244 54.7934C241.514 54.6989 241.736 54.537 241.912 54.3077C242.101 54.0648 242.296 53.7275 242.499 53.2958C242.58 53.1609 242.681 53.0934 242.802 53.0934C242.964 53.0934 243.045 53.1676 243.045 53.316C243.045 53.5859 243.011 53.8962 242.944 54.247C242.89 54.5842 242.809 54.9688 242.701 55.4005C242.633 55.6298 242.539 55.7445 242.418 55.7445L235.8 55.6231ZM251.791 52.4053C251.791 53.026 251.636 53.6061 251.325 54.1458C251.015 54.6854 250.55 55.1239 249.929 55.4612C249.308 55.7985 248.526 55.9671 247.581 55.9671C246.462 55.9671 245.558 55.8052 244.87 55.4814C244.654 55.387 244.512 55.2723 244.445 55.1374C244.202 54.6247 244.08 53.8489 244.08 52.8101C244.08 52.7022 244.121 52.5807 244.202 52.4458C244.296 52.2974 244.404 52.2232 244.525 52.2232C244.633 52.2232 244.829 52.6684 245.112 53.5589C245.504 54.7192 246.414 55.2993 247.844 55.2993C248.532 55.2993 249.079 55.0902 249.484 54.6719C249.888 54.2537 250.091 53.687 250.091 52.972C250.091 51.8387 249.065 50.584 247.015 49.2078C246.192 48.6547 245.558 48.0947 245.112 47.5281C244.667 46.9614 244.445 46.2666 244.445 45.4436C244.445 44.8905 244.62 44.371 244.971 43.8853C245.321 43.3862 245.8 42.9814 246.408 42.6711C247.028 42.3608 247.73 42.2056 248.512 42.2056C249.214 42.2056 249.774 42.2731 250.192 42.408C250.61 42.5429 250.853 42.6104 250.921 42.6104C251.055 42.6104 251.157 42.7386 251.224 42.9949C251.305 43.2512 251.359 43.5481 251.386 43.8853C251.426 44.2091 251.447 44.4925 251.447 44.7353C251.447 45.0996 251.399 45.2817 251.305 45.2817C250.914 45.2817 250.678 45.0928 250.597 44.7151C250.502 44.1349 250.246 43.683 249.828 43.3592C249.409 43.0354 248.897 42.8735 248.29 42.8735C247.669 42.8735 247.129 43.0758 246.671 43.4806C246.225 43.8719 246.003 44.398 246.003 45.0591C246.003 45.4639 246.151 45.8551 246.448 46.2329C246.745 46.5972 247.102 46.9345 247.521 47.2448C247.939 47.5416 248.33 47.8114 248.694 48.0543C250.759 49.3899 251.791 50.8403 251.791 52.4053Z" fill="#C6426E"/>
<defs>
<linearGradient id="paint0_linear_83_560" x1="58.2471" y1="0" x2="58.2471" y2="51.1264" gradientUnits="userSpaceOnUse">
<stop stop-color="#642B73"/>
<stop offset="1" stop-color="#C6426E"/>
</linearGradient>
<linearGradient id="paint1_linear_83_560" x1="58.0649" y1="25.9284" x2="58.0649" y2="77.0548" gradientUnits="userSpaceOnUse">
<stop stop-color="#CB356B"/>
<stop offset="1" stop-color="#BD3F32"/>
</linearGradient>
</defs>
</svg>
