<svg width="490" height="867" viewBox="0 0 490 867" fill="none" xmlns="http://www.w3.org/2000/svg">
<g clip-path="url(#clip0_5_2710)">
<path d="M63.3263 658.357C43.02 670.048 2.00428 665.726 1.17797 683.416C-3.40528 781.611 3.09575 796.043 62.3859 830.397C144.386 877.908 277.751 877.944 360.272 830.414C413.588 799.72 426.988 783.382 422.47 682.884C421.43 659.742 390.293 675.156 361.258 658.33C279.304 610.842 145.878 610.842 63.3263 658.357Z" fill="#96AEFE"/>
<path d="M63.327 604.489C-19.1885 652.001 -19.5685 729.053 62.3866 776.538C144.386 824.022 277.752 824.076 360.273 776.564C442.816 729.053 443.259 651.974 361.259 604.453C279.305 556.969 145.879 556.969 63.327 604.489Z" fill="#B3C3F8"/>
<path d="M95.4645 623.106C30.8103 660.335 30.5097 720.711 94.7276 757.92C158.981 795.128 263.482 795.17 328.146 757.941C392.825 720.712 393.172 660.314 328.917 623.078C264.7 585.871 160.153 585.871 95.4645 623.106Z" fill="#E7EEFF"/>
<path d="M142.903 650.585C104.605 672.636 104.428 708.399 142.466 730.438C180.525 752.477 242.422 752.502 280.724 730.45C319.026 708.398 319.24 672.623 281.181 650.568C243.144 628.529 181.217 628.529 142.903 650.585Z" fill="url(#paint0_linear_5_2710)"/>
<path fill-rule="evenodd" clip-rule="evenodd" d="M147.601 587.47C146.4 593.772 142.413 597.533 141.058 598.938C139.494 600.558 135.25 602.207 131.774 604.719C124.819 609.751 122.075 613.482 122.071 617.696C122.071 620.731 125.493 627.342 128.248 633.096C129.778 636.291 130.727 638.649 130.982 641.265C131.492 646.531 131.367 649.793 133.911 654.664C136.151 658.704 138.914 662.432 142.128 665.755C145.563 669.405 154.709 675.189 158.561 675.721C160.855 676.038 162.815 675.822 163.571 674.436C166.543 669.027 162.661 654.99 160.625 644.782C158.604 634.658 157.688 624.9 159.872 616.515C160.446 614.321 169.901 593.889 170.934 591.902C160.996 589.818 152.915 587.626 147.601 587.47Z" fill="#F9AA74"/>
<path fill-rule="evenodd" clip-rule="evenodd" d="M118.717 616.923C117.922 618.034 117.936 620.988 118.241 622.37C121.184 635.713 124.802 629.061 127.505 639.533C129.41 646.93 127.683 648.833 129.278 653.912C131.136 659.823 135.005 664.758 139.209 668.833C141.598 671.148 150.059 676.882 156.148 677.749C159.963 678.294 163.694 676.625 163.912 672.935C164.344 665.505 154.642 653.538 153.682 651.407C151.921 647.586 147.167 631.664 141.426 620.036C141.118 620.166 140.816 620.297 140.541 620.434C135.042 615.894 134.518 612.271 133.965 608.992C131.898 607.224 129.812 606.674 127.781 607.945C124.923 609.734 120.009 615.204 118.717 616.923Z" fill="#403FA5"/>
<path fill-rule="evenodd" clip-rule="evenodd" d="M132.472 604.234L131.771 604.719C124.815 609.751 122.071 613.482 122.068 617.697C122.068 620.731 125.49 627.342 128.244 633.096C129.774 636.292 130.724 638.65 130.978 641.266C131.491 646.532 131.364 649.794 133.907 654.665C136.149 658.704 138.913 662.433 142.128 665.755C145.563 669.405 154.709 675.189 158.561 675.721C160.856 676.038 162.815 675.822 163.571 674.437C166.543 669.027 162.662 654.99 160.625 644.785C158.864 635.963 157.941 627.414 159.179 619.818C156.066 616.512 145.293 618.091 140.535 620.432C132.278 613.611 135.239 608.864 132.472 604.234Z" fill="#4D4CBE"/>
<path fill-rule="evenodd" clip-rule="evenodd" d="M158.561 631.86C157.032 630.694 155.193 630 153.273 629.867C151.026 629.656 148.761 629.934 146.633 630.683L146.117 629.146C148.466 628.325 150.966 628.023 153.444 628.259C155.291 628.424 157.077 629 158.671 629.946C158.694 630.501 158.728 631.063 158.765 631.622L158.561 631.86Z" fill="white"/>
<path fill-rule="evenodd" clip-rule="evenodd" d="M159.986 641.376C158.56 640.486 156.941 639.949 155.265 639.811C153.018 639.6 150.751 639.876 148.622 640.621L148.105 639.092C150.454 638.269 152.954 637.965 155.433 638.202C156.894 638.344 158.32 638.73 159.654 639.342C159.759 640.018 159.87 640.696 159.986 641.376Z" fill="white"/>
<path fill-rule="evenodd" clip-rule="evenodd" d="M162.209 652.234C160.777 651.332 159.149 650.788 157.462 650.648C155.214 650.438 152.948 650.715 150.819 651.461L150.297 649.928C152.646 649.108 155.146 648.806 157.624 649.042C159.052 649.181 160.448 649.55 161.757 650.135C161.905 650.826 162.055 651.529 162.209 652.234Z" fill="white"/>
<path fill-rule="evenodd" clip-rule="evenodd" d="M240.793 545.153C214.207 569.478 185.942 594.373 161.296 619.087C153.268 621.452 140.871 606.073 142.3 593.835C160.146 572.594 173.343 555.079 184.127 544.37C192.778 535.799 202.738 528.652 213.637 523.197C224.759 510.33 243.705 511.092 244.04 522.474C244.242 529.336 246.423 539.134 240.793 545.153Z" fill="#C53954"/>
<path fill-rule="evenodd" clip-rule="evenodd" d="M215.389 568.039C212.108 570.872 208.672 572.031 205.466 574.818C201.138 566.631 197.397 553.757 194.069 546.302C192.726 543.295 192.724 543.239 192.208 537.994C191.949 535.352 201.337 530.67 208.819 528.155L215.389 568.039Z" fill="#C6426E"/>
<path fill-rule="evenodd" clip-rule="evenodd" d="M226.117 557.84C215.983 562.252 217.18 541.867 214.15 534.681C213.071 510.47 214.661 463.957 218.411 437.443L241.69 430.763L263.624 416.239C265.308 426.534 268.217 438.099 267.428 449.49C265.906 471.535 258.555 498.51 252.538 523.636C251.316 529.292 249.357 534.763 246.711 539.912C243.427 545.98 233.385 554.677 226.117 557.84Z" fill="#C53954"/>
<path fill-rule="evenodd" clip-rule="evenodd" d="M240.803 545.337L239.545 546.766C229.849 548.833 218.555 538.592 215.787 532.032C214.708 507.82 214.66 463.957 218.408 437.443L241.687 430.763L263.623 416.239C266.156 431.719 268.589 434.131 267.123 450.531C263.697 454.134 256.779 461.685 249.214 466.202C245.496 475.616 242.923 476.245 239.707 482.692C239.42 498.215 241.487 528.094 240.803 545.337Z" fill="#C6426E"/>
<path fill-rule="evenodd" clip-rule="evenodd" d="M217.189 658.161C219.591 664.118 219.605 668.572 219.218 670.479C218.779 672.686 216.098 676.356 214.528 680.345C211.392 688.32 211.096 692.937 213.371 696.49C215.008 699.046 221.47 702.773 226.899 706.136C229.915 708.006 231.992 709.485 233.619 711.548C236.896 715.707 238.552 718.524 243.331 721.261C247.402 723.457 251.743 725.112 256.244 726.185C261.114 727.41 271.943 727.366 275.475 725.744C277.579 724.78 279.109 723.543 279.005 721.964C278.579 715.815 267.726 706.079 260.488 698.575C253.312 691.135 247.263 683.41 244.569 675.174C243.864 673.021 240.784 650.731 240.576 648.496C231.082 652.082 221.755 655.437 217.189 658.161Z" fill="#F9AA74"/>
<path fill-rule="evenodd" clip-rule="evenodd" d="M210.127 697.638C210.059 699 211.669 701.487 212.671 702.486C222.364 712.145 221.813 704.594 229.748 711.961C235.356 717.167 234.933 719.698 239.02 723.117C243.777 727.095 249.708 729.172 255.449 730.342C258.713 731.008 268.938 731.289 274.539 728.746C278.044 727.151 280.286 723.742 278.474 720.522C274.824 714.029 260.179 709.167 258.217 707.886C254.671 705.614 242.059 694.765 230.93 688.055L230.4 688.866C223.314 687.996 220.919 685.229 218.678 682.764C215.98 682.39 213.923 683.045 212.904 685.21C211.465 688.25 210.281 695.5 210.127 697.638Z" fill="#403FA5"/>
<path fill-rule="evenodd" clip-rule="evenodd" d="M214.85 679.559L214.528 680.345C211.392 688.32 211.096 692.937 213.371 696.49C215.008 699.046 221.47 702.773 226.899 706.136C229.915 708.006 231.992 709.484 233.619 711.548C236.896 715.707 238.552 718.524 243.331 721.261C247.402 723.457 251.743 725.112 256.244 726.185C261.113 727.41 271.943 727.366 275.475 725.743C277.579 724.779 279.109 723.542 279.005 721.963C278.579 715.814 267.726 706.079 260.488 698.574C254.235 692.094 248.84 685.393 245.774 678.327C241.362 677.216 233.145 684.336 230.401 688.866C219.759 687.561 219.688 681.97 214.85 679.559Z" fill="#4D4CBE"/>
<path fill-rule="evenodd" clip-rule="evenodd" d="M251.762 688.802C249.844 688.642 247.922 689.047 246.233 689.967C244.227 690.997 242.469 692.449 241.08 694.222L239.815 693.212C241.349 691.257 243.291 689.657 245.505 688.523C247.151 687.672 248.966 687.197 250.819 687.135C251.141 687.586 251.47 688.04 251.806 688.497L251.762 688.802Z" fill="white"/>
<path fill-rule="evenodd" clip-rule="evenodd" d="M258.11 696.053C256.424 696.067 254.767 696.486 253.278 697.273C251.272 698.302 249.513 699.753 248.123 701.526L246.86 700.515C248.395 698.56 250.338 696.96 252.554 695.827C253.86 695.159 255.27 694.716 256.724 694.515C257.18 695.029 257.639 695.541 258.11 696.053Z" fill="white"/>
<path fill-rule="evenodd" clip-rule="evenodd" d="M265.846 703.998C264.152 704.008 262.486 704.427 260.99 705.219C258.984 706.249 257.225 707.701 255.837 709.475L254.57 708.462C256.105 706.507 258.048 704.907 260.263 703.773C261.54 703.124 262.915 702.685 264.333 702.475C264.832 702.981 265.339 703.486 265.846 703.998Z" fill="white"/>
<path fill-rule="evenodd" clip-rule="evenodd" d="M233.146 432.796C234.756 437.792 240.45 452.2 241.456 466.402C241.956 473.422 235.632 481.169 236.017 485.519C238.383 512.2 239.06 538.81 241.006 558.512C244.687 580.817 212.616 582.556 208.469 568.853C203.944 553.51 184.794 518.981 179.007 487.556C176.642 474.689 175.451 451.896 179.03 446.42L199.576 437.374L233.146 432.796Z" fill="#C53954"/>
<path fill-rule="evenodd" clip-rule="evenodd" d="M240.763 555.557C241.444 563.72 241.383 564.858 241.591 569.562C242.954 600.077 245.503 642.235 248.428 672.138C239.833 680.488 219.759 677.471 215.656 670.216C210.742 642.942 206.79 616.908 205.459 601.796C204.352 589.217 204.742 577.507 207.232 565.835C209.4 545.986 239.723 539.325 240.763 555.557Z" fill="#C53954"/>
<path fill-rule="evenodd" clip-rule="evenodd" d="M177.205 295.542C181.157 293.474 188.588 289.128 197.067 284.579C241.068 260.963 261.611 277.138 260.906 325.418C260.46 355.846 255.082 377.571 253.941 403.306C253.189 420.318 255.129 427.568 258.752 439.498C237.421 466.684 182.446 473.304 172.622 457.446C179.369 438.29 183.153 413.494 179.537 393.97C174.059 364.364 162.22 343.046 162.981 320.38C163.36 309.109 168.771 299.941 177.205 295.542Z" fill="white"/>
<path fill-rule="evenodd" clip-rule="evenodd" d="M242.916 274.464C247.221 275.608 250.844 277.866 253.263 281.656C255.657 285.53 257.536 289.698 258.852 294.055C265.219 314.647 262.408 339.732 262.582 361.294C262.666 371.922 263.143 382.635 262.995 393.576C262.707 414.584 268.709 430.381 268.363 445.62C266.105 448.501 262.384 453.656 259.016 456.493C245.648 414.537 262.6 339.505 252.662 314.355C251.481 311.368 249.438 308.474 246.012 305.439L246.422 283.409L242.916 274.464ZM177.205 295.542C181.157 293.474 188.588 289.128 197.066 284.579C198.076 284.037 199.183 283.475 200.365 282.899L200.596 283.822L207.551 288.719C213.134 299.15 224.418 308.34 227.13 319.27C230.793 334.054 226.783 425.821 202.007 483.257C184.229 483.986 168.761 475.037 164.434 468.058C163.81 455.452 178.159 417.544 178.206 401.663C178.313 366.032 140.32 314.989 177.205 295.542Z" fill="#4D4CBE"/>
<path d="M377.232 287.798C375.15 289.807 372.6 290.771 369.902 293.833C367.961 296.236 365.659 298.325 363.078 300.027C360.264 301.844 354.991 314.76 365.22 312.736C368.01 312.186 370.214 312.46 375.654 312.035C381.095 311.61 387.273 309.806 391.018 307.203C394.762 304.601 395.703 303.069 395.506 302.087C395.258 300.848 394.074 300.662 392.224 301.659C390.374 302.656 387.48 304.605 383.039 305.415C383.039 305.415 387.191 303.442 389.566 302.043C391.687 300.803 393.631 299.285 395.347 297.53C396.97 295.802 396.238 292.367 394.356 293.32C392.457 294.285 391.266 295.528 387.716 297.548C385.837 298.63 383.835 299.485 381.753 300.095C384.044 298.605 386.212 296.936 388.237 295.104C390.981 292.512 391.576 290.877 391.913 289.778C392.25 288.678 391.209 286.851 389.026 288.348C387.063 289.689 385.165 292.225 381.024 294.213C378.018 295.654 375.691 296.253 375.87 295.613C376.049 294.973 377.878 294.248 379.63 291.928C381.303 289.713 381.619 286.548 380.299 285.711C378.98 284.874 379.306 285.789 377.232 287.798Z" fill="#F9AA74"/>
<path d="M250.253 277.388C241.203 278.457 238.94 283.374 243.463 292.138C250.618 303.06 263.175 314.584 281.133 326.71C298.393 338.858 309.476 344.194 314.382 342.719C319.268 341.236 337.612 331.734 369.412 314.213C365.049 310.55 362.381 305.313 361.409 298.502C331.518 310.045 314.961 315.265 311.739 314.163C306.911 312.531 260.807 275.092 250.253 277.388Z" fill="#3A4BB3"/>
<path fill-rule="evenodd" clip-rule="evenodd" d="M241.249 288.044C244.426 293.023 242.356 301.29 242.456 306.442C248.848 307.147 248.116 307.82 252.595 313.909C251.464 308.727 250.266 306.412 248.278 301.447C251.485 297.868 253.733 297.64 257.887 295.228C254.462 281.879 245.638 274.84 239.246 274.181C236.282 282.581 239.288 280.099 241.249 288.044Z" fill="#4D4CBE"/>
<path fill-rule="evenodd" clip-rule="evenodd" d="M225.531 307.535C226.038 308.079 226.454 308.7 226.764 309.376C228.559 314.481 226.918 325.25 225.51 327.92C225.731 322.708 224 315.491 222.725 316.006C216.729 318.455 213.287 323.731 210.305 326.152C202.873 319.488 192.137 301.803 194.144 286.146C195.412 285.554 201.524 281.673 201.4 283.336C200.488 295.461 212.597 299.881 225.531 307.535Z" fill="#4D4CBE"/>
<path fill-rule="evenodd" clip-rule="evenodd" d="M177.205 295.542C181.157 293.474 188.588 289.128 197.067 284.579C197.841 284.164 198.677 283.746 199.566 283.334L200.053 283.542C197.373 287.61 191.188 293.053 184.097 298.366C181.118 302.079 194.259 310.89 200.316 317.315C204.365 321.619 192.316 336.883 193.841 343.339C200.701 372.429 204.51 385.004 199.125 414.028C195.183 435.282 188.184 464.527 182.322 480.136C176.347 477.86 166.721 473.224 164.49 468.105C163.681 465.017 167.204 446.717 168.64 441.488C172.861 426.115 178.169 414.861 178.208 401.659C178.226 396.004 175.85 386.523 174.018 379.672C166.479 351.465 144.869 313.995 177.205 295.542Z" fill="#4D4CBE"/>
<path fill-rule="evenodd" clip-rule="evenodd" d="M235.555 282.929C238.346 284.284 240.334 286.542 242.051 290.621C243.621 294.351 242.829 301.413 242.634 305.14C243.913 302.547 245.747 300.265 248.007 298.454C250.266 296.644 252.896 295.35 255.712 294.662C252.249 285.462 244.728 276.537 238.876 275.112C237.702 278.032 236.105 279.718 235.555 282.929Z" fill="#403FA5"/>
<path fill-rule="evenodd" clip-rule="evenodd" d="M239.215 278.934C239.749 275.14 240.383 271.5 241.252 269.527L241.272 269.463L216.512 258.295L210.814 252.597C205.116 258.295 206.323 272.789 201.452 283.094C204.944 293.719 218.945 301.879 227.232 302.063C236.387 302.267 242.772 297.881 242.387 290.955C241.654 288.757 238.058 284.491 239.215 278.934Z" fill="#F6A166"/>
<path fill-rule="evenodd" clip-rule="evenodd" d="M203.794 278.065C203.211 279.221 202.716 280.42 202.314 281.651C200.15 289.379 220.847 298.706 226.775 309.225C220.018 309.924 213.889 315.367 210.974 321.61C203.935 309.649 193.33 295.164 197.218 285.023C198.153 282.568 201.022 279.871 203.794 278.065Z" fill="#403FA5"/>
<path d="M293.395 78.3981L369.651 122.737C375.401 126.079 380.062 135.158 380.062 143.015V181.067C380.062 188.922 375.401 192.581 369.651 189.239L293.395 144.9C287.646 141.558 282.984 132.479 282.984 124.622V86.5702C282.984 78.7133 287.646 75.0553 293.395 78.3981Z" fill="#883471"/>
<path d="M314.092 142.46L348.954 162.729C351.362 164.113 353.34 163.077 353.347 160.418V132.603C353.239 131.112 352.786 129.665 352.024 128.377C351.262 127.089 350.211 125.995 348.954 125.179L314.092 104.907C311.684 103.52 309.706 104.56 309.698 107.219V135.035C309.807 136.527 310.259 137.974 311.022 139.262C311.784 140.55 312.835 141.644 314.092 142.46ZM322.571 136.264V120.968C322.571 120.238 322.912 119.76 323.475 119.714C323.832 119.723 324.181 119.815 324.495 119.983C324.809 120.152 325.08 120.391 325.284 120.682L339.105 136.362C339.733 137.042 340.106 137.917 340.16 138.839C340.16 139.632 339.749 140.118 339.105 140.089L325.286 139.706C324.921 139.653 324.572 139.525 324.261 139.329C323.949 139.134 323.682 138.875 323.477 138.57C322.933 137.92 322.615 137.111 322.573 136.264L322.571 136.264Z" fill="white"/>
<path d="M50.1994 150.725L125.766 107.284C131.464 104.009 136.083 108.117 136.083 116.46V156.87C136.083 165.212 131.464 174.632 125.766 177.908L50.1994 221.349C44.5015 224.624 39.8828 220.515 39.8828 212.173V171.763C39.8828 163.42 44.5015 154.001 50.1994 150.725Z" fill="#C6426E"/>
<path d="M76.5272 164.119C77.9563 163.273 79.3368 163.133 80.3566 163.735L93.9529 146.607C93.7885 146.132 93.7234 145.629 93.7618 145.128C93.7618 141.389 96.3548 136.822 99.5051 135.011C102.655 133.199 105.248 134.785 105.248 138.523C105.248 138.563 105.248 138.604 105.248 138.644C105.248 142.316 102.705 146.801 99.6068 148.58L99.5051 148.638C98.076 149.483 96.6955 149.624 95.6757 149.022L82.0824 166.151C82.2469 166.626 82.312 167.13 82.2736 167.631C82.2989 168.204 82.2344 168.778 82.0824 169.331L95.6726 171.057C96.5731 169.405 97.8942 168.019 99.5028 167.038C102.548 165.287 105.053 166.82 105.053 170.434C105.053 174.048 102.547 178.462 99.5028 180.213C96.4581 181.964 93.9529 180.434 93.9529 176.821C93.9393 176.249 94.0036 175.677 94.1441 175.121L80.5477 173.392C79.6475 175.044 78.3264 176.431 76.7176 177.412L76.6158 177.472C73.521 179.251 70.975 177.693 70.975 174.021C70.975 173.981 70.975 173.94 70.975 173.9C71.0096 171.937 71.5357 170.014 72.5054 168.306C73.475 166.598 74.8575 165.159 76.5272 164.119Z" fill="white"/>
<path d="M56.7713 293.714L124.825 337.206C129.958 340.485 134.115 349.28 134.115 356.858V393.545C134.115 401.118 129.953 404.602 124.825 401.323L56.7713 357.831C51.643 354.552 47.4807 345.754 47.4807 338.179V301.491C47.4807 293.917 51.643 290.435 56.7713 293.714Z" fill="#642B73"/>
<path d="M87.7593 352.341C89.4361 355.082 91.6303 357.472 94.2203 359.38C100.464 363.761 105.865 361.393 106.193 354.138C106.52 346.882 101.653 337.305 95.4127 332.929C89.1722 328.553 83.7681 330.916 83.4405 338.171C83.3815 340.84 83.8149 343.498 84.7193 346.011L75.942 349.913C75.6766 350.054 75.4582 350.269 75.3135 350.532C75.1688 350.795 75.1041 351.095 75.1273 351.394C75.1497 352.254 75.3638 353.099 75.7542 353.867C76.1445 354.635 76.7013 355.306 77.3842 355.833C77.6087 356.026 77.8761 356.163 78.1642 356.232C78.4524 356.301 78.7529 356.3 79.0407 356.23C79.0718 356.218 79.1022 356.205 79.1316 356.19L87.7593 352.341ZM87.4687 340.992C87.6807 336.318 91.1632 334.795 95.1838 337.617C99.2044 340.438 102.342 346.61 102.13 351.284C101.919 355.958 98.4366 357.484 94.4153 354.666C90.394 351.847 87.2591 345.676 87.4687 341.002V340.992Z" fill="white"/>
<path d="M313.659 692.36V412.132L119.486 419.06L117.785 689.164C117.785 689.164 113.284 741.479 209.187 745.598C305.091 749.718 313.659 692.36 313.659 692.36Z" fill="url(#paint1_linear_5_2710)"/>
<path opacity="0.5" d="M453.32 170.695L379.314 213.292L305.332 255.875C290.886 264.206 279.186 284.414 279.186 301.045V547.852C279.186 564.477 290.894 571.21 305.342 562.901L379.323 520.319L453.321 477.707C467.761 469.391 479.47 449.183 479.47 432.545V185.746C479.468 169.112 467.759 162.38 453.32 170.695Z" fill="#EFAFC5"/>
<path d="M399.039 382.827L355.548 364.557C354.322 364.042 352.658 364.315 350.923 365.315C347.337 367.385 344.386 372.031 344.386 375.607C344.386 377.335 345.075 378.596 346.3 379.11L389.8 397.374C391.017 397.835 392.641 397.553 394.329 396.578C397.914 394.509 400.863 389.865 400.863 386.29C400.863 384.605 400.212 383.365 399.039 382.827Z" fill="#C6426E"/>
<path d="M343.075 386.967L342.748 388.793C340.442 401.625 334.834 415.786 327.258 429.018L350.922 438.956C359.803 426.273 370.609 414.297 382.144 405.336L383.788 404.061L343.075 386.967Z" fill="#C6426E"/>
<path d="M322.92 436.41L306.748 461.865C305.022 464.407 304.029 467.373 303.875 470.438C303.875 473.03 304.909 474.921 306.748 475.692L315.986 479.572C317.824 480.341 320.318 479.935 322.918 478.434C325.736 476.72 328.111 474.368 329.852 471.571L346.02 446.108L322.92 436.41ZM325.232 460.417C324.652 461.35 323.86 462.133 322.92 462.704C321.128 463.739 319.653 463.119 319.653 461.332C319.705 460.311 320.035 459.324 320.61 458.477L325.227 451.203C325.807 450.271 326.6 449.487 327.539 448.916C329.331 447.881 330.806 448.501 330.806 450.288C330.755 451.309 330.425 452.296 329.852 453.143L325.232 460.417Z" fill="#C6426E"/>
<path d="M359.66 456.097L364.105 449.102C365.83 446.561 366.824 443.597 366.978 440.532C366.978 437.94 365.944 436.05 364.105 435.281L360.804 433.892C358.981 436.172 357.227 438.507 355.543 440.896L359.485 442.557C359.805 442.716 360.068 442.969 360.239 443.282C360.411 443.594 360.482 443.952 360.443 444.306C360.392 445.327 360.06 446.314 359.485 447.161L354.967 454.273L348.328 451.69L339.088 466.238L353.911 472.003C355.135 472.516 356.797 472.243 358.529 471.243C362.114 469.174 365.063 464.53 365.063 460.955C365.063 459.227 364.373 457.965 363.146 457.451L359.66 456.097Z" fill="#C6426E"/>
<path d="M372.861 351.768H372.857C371.066 352.802 369.592 355.123 369.592 356.908V363.426C369.592 365.214 371.066 365.832 372.859 364.798C374.651 363.763 376.126 361.441 376.126 359.654V353.136C376.126 351.354 374.652 350.736 372.861 351.768Z" fill="#C6426E"/>
<path d="M398.995 362.746L392.46 366.52C390.667 367.555 389.193 369.877 389.193 371.665C389.193 373.452 390.667 374.071 392.46 373.037L398.995 369.265C400.787 368.23 402.262 365.908 402.262 364.121C402.262 362.334 400.787 361.712 398.995 362.746Z" fill="#C6426E"/>
<path d="M394.77 346.592C394.381 346.477 393.971 346.451 393.57 346.516C393.17 346.582 392.789 346.738 392.458 346.971C391.518 347.543 390.726 348.327 390.146 349.26L383.616 359.547C383.042 360.394 382.711 361.381 382.659 362.402C382.659 364.189 384.134 364.809 385.926 363.774C386.866 363.203 387.658 362.419 388.239 361.486L394.773 351.198C395.348 350.351 395.679 349.364 395.731 348.343C395.769 347.988 395.697 347.63 395.526 347.317C395.354 347.005 395.09 346.752 394.77 346.592Z" fill="#C6426E"/>
<path d="M369.511 290.756C381.844 283.637 391.995 287.899 391.995 300.198C391.995 312.497 381.844 328.478 369.511 335.598C357.178 342.717 347.029 338.455 347.029 326.156C347.029 313.857 357.178 297.877 369.511 290.756ZM374.822 297.174C372.432 298.443 366.505 301.871 364.11 303.362C361.908 304.665 360.039 306.462 358.653 308.61C356.152 312.548 356.472 315.725 356.472 320.653C356.472 325.698 356.19 329.143 358.653 330.178C361.164 331.231 364.585 328.93 369.468 326.111C374.478 323.219 376.208 322.223 377.98 320.516C380.626 318.045 382.205 314.645 382.383 311.034C382.496 308.581 382.49 302.676 382.383 300.35C382.171 295.92 379.72 294.574 374.825 297.174L374.822 297.174ZM378.61 317.004C376.971 319.586 374.696 320.753 369.438 323.79C364.02 326.917 361.846 328.252 360.265 327.581C358.439 326.822 358.77 323.721 358.77 319.309C358.77 313.338 358.153 309.393 364.165 305.617C365.546 304.772 365.952 304.521 369.428 302.515L369.476 302.52C375.251 299.187 379.783 295.968 380.054 301.802C380.116 303.134 380.131 303.536 380.131 306.996C380.123 312.337 380.225 314.459 378.613 317.004L378.61 317.004ZM369.468 306.493C365.808 308.606 362.795 313.349 362.795 316.999C362.795 320.649 365.808 321.914 369.468 319.801C373.129 317.689 376.14 312.948 376.14 309.297C376.14 305.645 373.129 304.38 369.468 306.493ZM369.468 317.466C367.093 318.838 365.138 318.017 365.138 315.648C365.138 313.278 367.093 310.2 369.469 308.828C371.846 307.457 373.8 308.278 373.8 310.647V310.651C373.8 313.019 371.846 316.096 369.471 317.467L369.468 317.466ZM376.406 300.672C377.261 300.178 377.965 300.474 377.965 301.327C377.914 301.828 377.746 302.311 377.476 302.737C377.205 303.163 376.839 303.521 376.406 303.782C375.55 304.275 374.846 303.979 374.846 303.127C374.898 302.625 375.065 302.142 375.335 301.716C375.606 301.29 375.972 300.932 376.405 300.672H376.406Z" fill="#C6426E"/>
<path fill-rule="evenodd" clip-rule="evenodd" d="M417.976 282.702C430.496 275.477 440.66 279.744 440.66 292.229C440.66 304.713 430.496 320.716 417.976 327.946C405.456 335.176 395.291 330.901 395.291 318.415C395.291 305.929 405.452 289.93 417.976 282.702ZM422.138 294.063L424.849 292.498C425.037 292.384 425.196 292.229 425.314 292.044C425.431 291.859 425.504 291.649 425.526 291.431V287.375C425.526 287.005 425.218 286.877 424.849 287.091L422.138 288.656C418.048 291.016 414.683 296.315 414.683 300.394V303.776L411.291 305.732C411.104 305.845 410.945 306 410.828 306.185C410.711 306.369 410.639 306.578 410.616 306.796V310.851C410.616 311.221 410.925 311.35 411.293 311.135L414.685 309.179V321.344L420.106 318.214V306.049L423.498 304.092C423.807 303.902 424.035 303.606 424.141 303.259L425.495 298.422C425.517 298.347 425.529 298.27 425.53 298.192C425.539 298.132 425.532 298.072 425.51 298.016C425.488 297.96 425.452 297.911 425.405 297.874C425.359 297.836 425.303 297.811 425.244 297.801C425.185 297.791 425.124 297.797 425.067 297.818C424.992 297.838 424.921 297.868 424.854 297.908L420.11 300.646V297.264C420.176 296.61 420.393 295.981 420.745 295.426C421.096 294.87 421.572 294.404 422.135 294.063L422.138 294.063Z" fill="#C6426E"/>
<path d="M434.426 325.972C446.96 318.737 457.274 323.068 457.274 335.566C457.274 348.064 446.961 364.301 434.428 371.538C421.895 378.776 411.579 374.436 411.579 361.941C411.579 349.446 421.894 333.206 434.426 325.972ZM447.427 333.206C446.501 334.15 445.492 335.01 444.412 335.774C445.476 334.551 446.261 333.112 446.714 331.557C445.72 332.726 444.61 333.791 443.399 334.736C442.409 334.254 441.025 334.456 439.576 335.291C436.707 336.948 434.347 340.665 434.347 343.526C434.34 343.903 434.381 344.279 434.469 344.646C430.26 346.869 426.334 347.148 423.683 345.414C423.241 346.373 422.997 347.411 422.967 348.466C422.967 350.204 423.842 351.329 425.291 351.463C424.572 351.887 423.762 352.135 422.927 352.187V352.243C422.931 354.715 424.691 355.851 427.12 354.949C426.693 355.311 426.233 355.633 425.748 355.912C425.432 356.102 425.101 356.263 424.757 356.395C425.451 358.113 427.414 358.439 429.647 357.207C427.911 359.614 425.704 361.646 423.159 363.178C422.752 363.416 422.334 363.634 421.906 363.83C424.296 363.984 427.087 363.19 429.933 361.538C439.562 355.98 444.827 344.987 444.827 338.094C444.827 337.864 444.819 337.646 444.808 337.43C445.826 336.117 446.704 334.701 447.427 333.206Z" fill="#C6426E"/>
<path d="M283.537 368.432C280.673 369.408 277.822 369.175 273.897 370.867C270.98 372.269 267.863 373.215 264.657 373.67C261.181 374.132 250.385 383.985 260.969 386.644C263.854 387.37 265.812 388.62 271.149 390.649C276.487 392.677 283.139 393.735 287.851 392.945C292.564 392.156 294.139 391.131 294.393 390.116C294.715 388.834 293.68 388.13 291.487 388.242C289.293 388.354 285.678 388.908 281.111 387.689C281.111 387.689 285.923 387.679 288.798 387.417C291.361 387.195 293.882 386.628 296.293 385.733C298.606 384.829 299.459 381.253 297.248 381.312C295.019 381.373 293.333 382.017 289.066 382.341C286.803 382.524 284.526 382.438 282.283 382.085C285.119 381.699 287.919 381.09 290.659 380.263C294.421 379.033 295.721 377.758 296.53 376.87C297.339 375.982 297.18 373.789 294.443 374.225C291.984 374.62 289.047 376.169 284.24 376.194C280.747 376.208 278.281 375.74 278.737 375.215C279.194 374.69 281.249 374.82 283.948 373.411C286.526 372.065 288.25 369.216 287.381 367.831C286.512 366.446 286.405 367.464 283.537 368.432Z" fill="#F9AA74"/>
<path d="M176.269 302.748C167.75 299.541 161.469 306.756 161.434 316.609C162.744 329.586 170.585 341.695 180.939 360.705C190.662 379.408 198.039 389.231 203.069 390.172C208.097 391.1 228.77 391.081 265.088 390.114C262.902 384.861 262.949 378.983 265.229 372.481C233.359 369.017 216.251 366.058 213.905 363.606C210.365 359.933 186.701 305.54 176.269 302.748Z" fill="#403FA5"/>
<path d="M249.243 223.76C246.636 206.869 234.435 194.073 216.969 195.039C208.046 195.536 199.687 199.546 193.729 206.187C187.77 212.829 184.701 221.558 185.196 230.455C185.484 235.582 186.958 240.574 189.503 245.038C192.047 249.503 195.593 253.32 199.863 256.191C199.863 256.191 201.765 265.287 202.869 266.568C209.048 273.774 226.47 284.332 231.836 283.568C238.727 282.586 242.461 279.724 245.74 272.206C251.538 258.948 250.676 232.113 249.243 223.76Z" fill="#F9AA74"/>
<path d="M246.703 210.144C243.038 204.497 237.738 200.094 231.505 197.518C225.273 194.943 218.404 194.316 211.806 195.722C203.111 197.583 195.506 202.797 190.651 210.227C183.945 212.824 184.133 222.571 184.265 225.592C184.815 238.611 190.277 249.626 199.861 256.191C199.487 255.047 190.688 241.923 199.755 239.019C201.195 240.686 203.146 247.09 203.212 249.75C203.212 249.75 210.41 217.915 209.301 213.593C217.451 216.702 226.329 217.387 234.861 215.566C240.918 214.287 245.021 212.021 246.703 210.144Z" fill="black"/>
<path d="M190.652 210.227C190.652 210.227 191.159 203.471 199.743 196.982C209.949 189.27 224.303 190.987 239.435 196.982C249.105 200.816 262.615 207.691 259.707 218.75C255.448 234.952 214.746 236.881 201.095 225.59C200.112 225.276 198.423 208.487 190.652 210.227Z" fill="black"/>
<path d="M199.867 256.07C199.867 256.07 199.079 257.861 195.805 258.03C189.676 258.33 182.502 246.974 187.443 239.268C190.527 234.449 197.498 236.138 199.756 239.019L199.867 256.07Z" fill="#F9AA74"/>
</g>
<defs>
<linearGradient id="paint0_linear_5_2710" x1="211.823" y1="639.236" x2="211.823" y2="729.473" gradientUnits="userSpaceOnUse">
<stop stop-color="#E7EEFF"/>
<stop offset="1" stop-color="#0133C8"/>
</linearGradient>
<linearGradient id="paint1_linear_5_2710" x1="215.705" y1="397.116" x2="215.705" y2="694.09" gradientUnits="userSpaceOnUse">
<stop stop-color="#E7E7FF" stop-opacity="0"/>
<stop offset="1" stop-color="#4D4CBE"/>
</linearGradient>
<clipPath id="clip0_5_2710">
<rect width="490" height="866.047" fill="white"/>
</clipPath>
</defs>
</svg>
