<svg width="48" height="37" viewBox="0 0 48 37" fill="none" xmlns="http://www.w3.org/2000/svg">
<path d="M38.5734 18.2633C43.8067 18.2633 47.3334 14.6233 47.3334 9.23C47.3334 4.37666 43.2801 0.333332 37.7901 0.333332C31.7767 0.333332 27.3334 5.18667 27.3334 12.6C27.3334 29.45 39.6201 36.19 47.3334 37V29.5867C42.1034 28.6433 36.2234 23.3867 35.9601 17.5867C36.2234 17.72 37.2667 18.2633 38.5734 18.2633ZM11.9101 18.2633C17.1367 18.2633 20.6667 14.6233 20.6667 9.23C20.6667 4.37666 16.6134 0.333332 11.1234 0.333332C5.11008 0.333332 0.666748 5.18667 0.666748 12.6C0.666748 29.45 12.9534 36.19 20.6667 37V29.5867C15.4367 28.6433 9.55675 23.3867 9.29341 17.5867C9.55675 17.72 10.6001 18.2633 11.9101 18.2633Z" fill="#642B73"/>
</svg>
