<svg width="48" height="37" viewBox="0 0 48 37" fill="none" xmlns="http://www.w3.org/2000/svg">
<path d="M9.42329 17.93C4.19996 17.93 0.666626 14.29 0.666626 8.89667C0.666626 4.04333 4.71996 0 10.21 0C16.2233 0 20.6666 4.85333 20.6666 12.2667C20.6666 29.1167 8.37996 35.8567 0.666626 36.6667V29.2533C5.89663 28.31 11.7766 23.0533 12.04 17.2533C11.7766 17.3867 10.7333 17.93 9.42329 17.93ZM36.09 17.93C30.8633 17.93 27.3333 14.29 27.3333 8.89667C27.3333 4.04333 31.3866 0 36.8766 0C42.89 0 47.3333 4.85333 47.3333 12.2667C47.3333 29.1167 35.0466 35.8567 27.3333 36.6667V29.2533C32.5633 28.31 38.4433 23.0533 38.7066 17.2533C38.4433 17.3867 37.4 17.93 36.09 17.93Z" fill="#642B73"/>
</svg>
