<svg width="224" height="36" viewBox="0 0 224 36" fill="none" xmlns="http://www.w3.org/2000/svg">
<path d="M17.9949 26.4389L7.63458 31.8857L9.61322 20.3493L1.23157 12.1792L12.8147 10.4961L17.9949 0L23.175 10.4961L34.7581 12.1792L26.3765 20.3493L28.3551 31.8857L17.9949 26.4389Z" fill="#F6D021"/>
<path d="M64.9974 26.4389L54.6371 31.8857L56.6158 20.3493L48.2341 12.1792L59.8173 10.4961L64.9974 0L70.1776 10.4961L81.7607 12.1792L73.3791 20.3493L75.3577 31.8857L64.9974 26.4389Z" fill="#F6D021"/>
<path d="M112 26.4389L101.64 31.8857L103.618 20.3493L95.2367 12.1792L106.82 10.4961L112 0L117.18 10.4961L128.763 12.1792L120.382 20.3493L122.36 31.8857L112 26.4389Z" fill="#F6D021"/>
<path d="M159.003 26.4389L148.642 31.8857L150.621 20.3493L142.239 12.1792L153.822 10.4961L159.003 0L164.183 10.4961L175.766 12.1792L167.384 20.3493L169.363 31.8857L159.003 26.4389Z" fill="#F6D021"/>
<path d="M206.005 26.4389L195.645 31.8857L197.623 20.3493L189.242 12.1792L200.825 10.4961L206.005 0L211.185 10.4961L222.768 12.1792L214.387 20.3493L216.365 31.8857L206.005 26.4389Z" fill="#F6D021"/>
</svg>
